<svg width="384" height="182" viewBox="0 0 384 182" fill="none" xmlns="http://www.w3.org/2000/svg">
<rect width="48" height="48" rx="24" fill="#437EF7"/>
<path fill-rule="evenodd" clip-rule="evenodd" d="M9.33331 24C9.33331 15.8998 15.8998 9.33331 24 9.33331C32.1002 9.33331 38.6666 15.8998 38.6666 24C38.6666 32.1002 32.1002 38.6666 24 38.6666C15.8998 38.6666 9.33331 32.1002 9.33331 24ZM24 13.3333C24.7364 13.3333 25.3333 13.9303 25.3333 14.6666V19.8518C25.3333 20.5882 24.7364 21.1852 24 21.1852C23.2636 21.1852 22.6666 20.5882 22.6666 19.8518V14.6666C22.6666 13.9303 23.2636 13.3333 24 13.3333ZM33.3333 25.3333C34.0697 25.3333 34.6666 24.7364 34.6666 24C34.6666 23.2636 34.0697 22.6666 33.3333 22.6666H28.1481C27.4117 22.6666 26.8148 23.2636 26.8148 24C26.8148 24.7364 27.4117 25.3333 28.1481 25.3333H33.3333ZM24 26.8148C24.7364 26.8148 25.3333 27.4117 25.3333 28.1481V33.3333C25.3333 34.0697 24.7364 34.6666 24 34.6666C23.2636 34.6666 22.6666 34.0697 22.6666 33.3333V28.1481C22.6666 27.4117 23.2636 26.8148 24 26.8148ZM19.8518 25.3333C20.5882 25.3333 21.1852 24.7364 21.1852 24C21.1852 23.2636 20.5882 22.6666 19.8518 22.6666H14.6666C13.9303 22.6666 13.3333 23.2636 13.3333 24C13.3333 24.7364 13.9303 25.3333 14.6666 25.3333H19.8518Z" fill="white"/>
<path d="M1.57812 91V75H11.8281V77.4297H4.47656V81.7734H11.125V84.2031H4.47656V91H1.57812ZM17.4695 91.2422C16.709 91.2422 16.0241 91.1068 15.4148 90.8359C14.8106 90.5599 14.3314 90.1536 13.9773 89.6172C13.6283 89.0807 13.4538 88.4193 13.4538 87.6328C13.4538 86.9557 13.5788 86.3958 13.8288 85.9531C14.0788 85.5104 14.42 85.1562 14.8523 84.8906C15.2846 84.625 15.7715 84.4245 16.3132 84.2891C16.8601 84.1484 17.4252 84.0469 18.0085 83.9844C18.7116 83.9115 19.282 83.8464 19.7195 83.7891C20.157 83.7266 20.4747 83.6328 20.6726 83.5078C20.8757 83.3776 20.9773 83.1771 20.9773 82.9062V82.8594C20.9773 82.2708 20.8028 81.8151 20.4538 81.4922C20.1049 81.1693 19.6023 81.0078 18.946 81.0078C18.2533 81.0078 17.7038 81.1589 17.2976 81.4609C16.8965 81.763 16.6257 82.1198 16.4851 82.5312L13.8445 82.1562C14.0528 81.4271 14.3965 80.8177 14.8757 80.3281C15.3549 79.8333 15.9408 79.4635 16.6335 79.2187C17.3262 78.9688 18.0918 78.8438 18.9304 78.8438C19.5085 78.8438 20.084 78.9115 20.657 79.0469C21.2299 79.1823 21.7533 79.4062 22.2273 79.7187C22.7012 80.026 23.0814 80.4453 23.3679 80.9766C23.6596 81.5078 23.8054 82.1719 23.8054 82.9687V91H21.0866V89.3516H20.9929C20.821 89.6849 20.5788 89.9974 20.2663 90.2891C19.959 90.5755 19.571 90.8073 19.1023 90.9844C18.6387 91.1563 18.0945 91.2422 17.4695 91.2422ZM18.2038 89.1641C18.7715 89.1641 19.2637 89.0521 19.6804 88.8281C20.0971 88.599 20.4174 88.2969 20.6413 87.9219C20.8705 87.5469 20.9851 87.138 20.9851 86.6953V85.2812C20.8965 85.3542 20.7455 85.4219 20.532 85.4844C20.3236 85.5469 20.0892 85.6016 19.8288 85.6484C19.5684 85.6953 19.3106 85.737 19.0554 85.7734C18.8002 85.8099 18.5788 85.8411 18.3913 85.8672C17.9695 85.9245 17.5918 86.0182 17.2585 86.1484C16.9252 86.2786 16.6622 86.4609 16.4695 86.6953C16.2767 86.9245 16.1804 87.2214 16.1804 87.5859C16.1804 88.1068 16.3705 88.5 16.7507 88.7656C17.1309 89.0312 17.6153 89.1641 18.2038 89.1641ZM35.9135 82.1719L33.3354 82.4531C33.2625 82.1927 33.1349 81.9479 32.9526 81.7188C32.7755 81.4896 32.5359 81.3047 32.2338 81.1641C31.9317 81.0234 31.562 80.9531 31.1245 80.9531C30.5359 80.9531 30.0411 81.0807 29.6401 81.3359C29.2442 81.5911 29.0489 81.9219 29.0541 82.3281C29.0489 82.6771 29.1765 82.9609 29.437 83.1797C29.7026 83.3984 30.1401 83.5781 30.7495 83.7188L32.7963 84.1562C33.9317 84.401 34.7755 84.7891 35.3276 85.3203C35.8849 85.8516 36.1661 86.5469 36.1713 87.4062C36.1661 88.1615 35.9448 88.8281 35.5073 89.4062C35.075 89.9792 34.4734 90.4271 33.7026 90.75C32.9317 91.0729 32.0463 91.2344 31.0463 91.2344C29.5776 91.2344 28.3953 90.9271 27.4995 90.3125C26.6036 89.6927 26.0698 88.8307 25.8979 87.7266L28.6557 87.4609C28.7807 88.0026 29.0463 88.4115 29.4526 88.6875C29.8588 88.9635 30.3875 89.1016 31.0385 89.1016C31.7104 89.1016 32.2495 88.9635 32.6557 88.6875C33.0672 88.4115 33.2729 88.0703 33.2729 87.6641C33.2729 87.3203 33.1401 87.0365 32.8745 86.8125C32.614 86.5885 32.2078 86.4167 31.6557 86.2969L29.6088 85.8672C28.4578 85.6276 27.6062 85.224 27.0541 84.6562C26.5021 84.0833 26.2286 83.3594 26.2338 82.4844C26.2286 81.7448 26.4291 81.1042 26.8354 80.5625C27.2468 80.0156 27.8172 79.5937 28.5463 79.2969C29.2807 78.9948 30.1271 78.8438 31.0854 78.8438C32.4916 78.8438 33.5984 79.1432 34.4057 79.7422C35.2182 80.3411 35.7208 81.151 35.9135 82.1719ZM44.2755 79V81.1875H37.3771V79H44.2755ZM39.0802 76.125H41.9084V87.3906C41.9084 87.7708 41.9657 88.0625 42.0802 88.2656C42.2 88.4635 42.3563 88.599 42.549 88.6719C42.7417 88.7448 42.9552 88.7812 43.1896 88.7812C43.3667 88.7812 43.5282 88.7682 43.674 88.7422C43.825 88.7161 43.9396 88.6927 44.0177 88.6719L44.4943 90.8828C44.3433 90.9349 44.1271 90.9922 43.8459 91.0547C43.5698 91.1172 43.2313 91.1536 42.8302 91.1641C42.1219 91.1849 41.4839 91.0781 40.9162 90.8437C40.3485 90.6042 39.8979 90.2344 39.5646 89.7344C39.2365 89.2344 39.075 88.6094 39.0802 87.8594V76.125ZM65.4781 80.3984H62.5563C62.4729 79.9193 62.3193 79.4948 62.0953 79.125C61.8714 78.75 61.5927 78.4323 61.2594 78.1719C60.926 77.9115 60.5458 77.7161 60.1188 77.5859C59.6969 77.4505 59.2411 77.3828 58.7516 77.3828C57.8818 77.3828 57.1109 77.6016 56.4391 78.0391C55.7672 78.4714 55.2411 79.1068 54.8609 79.9453C54.4807 80.7786 54.2906 81.7969 54.2906 83C54.2906 84.224 54.4807 85.2552 54.8609 86.0937C55.2464 86.9271 55.7724 87.5573 56.4391 87.9844C57.1109 88.4062 57.8792 88.6172 58.7438 88.6172C59.2229 88.6172 59.6708 88.5547 60.0875 88.4297C60.5094 88.2995 60.887 88.1094 61.2203 87.8594C61.5589 87.6094 61.8427 87.3021 62.0719 86.9375C62.3063 86.5729 62.4677 86.1562 62.5563 85.6875L65.4781 85.7031C65.3688 86.4635 65.1318 87.1771 64.7672 87.8438C64.4078 88.5104 63.9365 89.099 63.3531 89.6094C62.7698 90.1146 62.0875 90.5104 61.3063 90.7969C60.525 91.0781 59.6578 91.2187 58.7047 91.2187C57.2984 91.2187 56.0432 90.8932 54.9391 90.2422C53.8349 89.5911 52.9651 88.651 52.3297 87.4219C51.6943 86.1927 51.3766 84.7187 51.3766 83C51.3766 81.276 51.6969 79.8021 52.3375 78.5781C52.9781 77.349 53.8505 76.4089 54.9547 75.7578C56.0589 75.1068 57.3089 74.7812 58.7047 74.7812C59.5953 74.7812 60.4234 74.9062 61.1891 75.1562C61.9547 75.4062 62.637 75.7734 63.2359 76.2578C63.8349 76.737 64.3271 77.3255 64.7125 78.0234C65.1031 78.7161 65.3583 79.5078 65.4781 80.3984ZM73.0218 91.2344C71.8499 91.2344 70.8343 90.9766 69.9749 90.4609C69.1155 89.9453 68.4489 89.224 67.9749 88.2969C67.5062 87.3698 67.2718 86.2865 67.2718 85.0469C67.2718 83.8073 67.5062 82.7214 67.9749 81.7891C68.4489 80.8568 69.1155 80.1328 69.9749 79.6172C70.8343 79.1016 71.8499 78.8438 73.0218 78.8438C74.1937 78.8438 75.2093 79.1016 76.0687 79.6172C76.928 80.1328 77.5921 80.8568 78.0609 81.7891C78.5348 82.7214 78.7718 83.8073 78.7718 85.0469C78.7718 86.2865 78.5348 87.3698 78.0609 88.2969C77.5921 89.224 76.928 89.9453 76.0687 90.4609C75.2093 90.9766 74.1937 91.2344 73.0218 91.2344ZM73.0374 88.9687C73.6728 88.9687 74.2041 88.7943 74.6312 88.4453C75.0583 88.0911 75.376 87.6172 75.5843 87.0234C75.7978 86.4297 75.9046 85.7682 75.9046 85.0391C75.9046 84.3047 75.7978 83.6406 75.5843 83.0469C75.376 82.4479 75.0583 81.9714 74.6312 81.6172C74.2041 81.263 73.6728 81.0859 73.0374 81.0859C72.3864 81.0859 71.8447 81.263 71.4124 81.6172C70.9853 81.9714 70.665 82.4479 70.4515 83.0469C70.2432 83.6406 70.139 84.3047 70.139 85.0391C70.139 85.7682 70.2432 86.4297 70.4515 87.0234C70.665 87.6172 70.9853 88.0911 71.4124 88.4453C71.8447 88.7943 72.3864 88.9687 73.0374 88.9687ZM83.7803 83.9687V91H80.9522V79H83.6553V81.0391H83.7959C84.072 80.3672 84.5121 79.8333 85.1162 79.4375C85.7256 79.0417 86.4782 78.8438 87.3741 78.8438C88.2022 78.8438 88.9235 79.0208 89.5381 79.375C90.1579 79.7292 90.6371 80.2422 90.9756 80.9141C91.3194 81.5859 91.4886 82.401 91.4834 83.3594V91H88.6553V83.7969C88.6553 82.9948 88.447 82.3672 88.0303 81.9141C87.6189 81.4609 87.0485 81.2344 86.3194 81.2344C85.8246 81.2344 85.3845 81.3437 84.9991 81.5625C84.6189 81.776 84.3194 82.0859 84.1006 82.4922C83.8871 82.8984 83.7803 83.3906 83.7803 83.9687ZM96.9666 83.9687V91H94.1384V79H96.8416V81.0391H96.9822C97.2582 80.3672 97.6983 79.8333 98.3025 79.4375C98.9119 79.0417 99.6645 78.8438 100.56 78.8438C101.388 78.8438 102.11 79.0208 102.724 79.375C103.344 79.7292 103.823 80.2422 104.162 80.9141C104.506 81.5859 104.675 82.401 104.67 83.3594V91H101.842V83.7969C101.842 82.9948 101.633 82.3672 101.217 81.9141C100.805 81.4609 100.235 81.2344 99.5056 81.2344C99.0108 81.2344 98.5707 81.3437 98.1853 81.5625C97.8051 81.776 97.5056 82.0859 97.2869 82.4922C97.0733 82.8984 96.9666 83.3906 96.9666 83.9687ZM112.637 91.2344C111.434 91.2344 110.395 90.9844 109.52 90.4844C108.65 89.9792 107.981 89.2656 107.512 88.3437C107.043 87.4167 106.809 86.3255 106.809 85.0703C106.809 83.8359 107.043 82.7526 107.512 81.8203C107.986 80.8828 108.648 80.1536 109.497 79.6328C110.346 79.1068 111.343 78.8438 112.489 78.8438C113.228 78.8438 113.926 78.9635 114.582 79.2031C115.244 79.4375 115.827 79.8021 116.332 80.2969C116.843 80.7917 117.244 81.4219 117.536 82.1875C117.827 82.9479 117.973 83.8542 117.973 84.9062V85.7734H108.137V83.8672H115.262C115.257 83.3255 115.14 82.8437 114.911 82.4219C114.681 81.9948 114.361 81.6589 113.95 81.4141C113.543 81.1693 113.069 81.0469 112.528 81.0469C111.95 81.0469 111.442 81.1875 111.004 81.4687C110.567 81.7448 110.226 82.1094 109.981 82.5625C109.741 83.0104 109.619 83.5026 109.614 84.0391V85.7031C109.614 86.401 109.741 87 109.997 87.5C110.252 87.9948 110.609 88.375 111.067 88.6406C111.525 88.901 112.062 89.0312 112.676 89.0312C113.088 89.0312 113.46 88.974 113.793 88.8594C114.127 88.7396 114.416 88.5651 114.661 88.3359C114.905 88.1068 115.09 87.8229 115.215 87.4844L117.856 87.7812C117.689 88.4792 117.372 89.0885 116.903 89.6094C116.439 90.125 115.846 90.526 115.122 90.8125C114.398 91.0937 113.569 91.2344 112.637 91.2344ZM125.38 91.2344C124.182 91.2344 123.154 90.9714 122.294 90.4453C121.44 89.9193 120.781 89.1927 120.318 88.2656C119.859 87.3333 119.63 86.2604 119.63 85.0469C119.63 83.8281 119.864 82.7526 120.333 81.8203C120.802 80.8828 121.463 80.1536 122.318 79.6328C123.177 79.1068 124.193 78.8438 125.364 78.8438C126.338 78.8438 127.2 79.0234 127.95 79.3828C128.706 79.737 129.307 80.2396 129.755 80.8906C130.203 81.5365 130.458 82.2917 130.521 83.1562H127.818C127.708 82.5781 127.448 82.0964 127.036 81.7109C126.63 81.3203 126.086 81.125 125.404 81.125C124.825 81.125 124.318 81.2812 123.88 81.5937C123.443 81.901 123.101 82.3437 122.857 82.9219C122.617 83.5 122.497 84.1927 122.497 85C122.497 85.8177 122.617 86.5208 122.857 87.1094C123.096 87.6927 123.432 88.1432 123.864 88.4609C124.302 88.7734 124.815 88.9297 125.404 88.9297C125.82 88.9297 126.193 88.8516 126.521 88.6953C126.854 88.5339 127.133 88.3021 127.357 88C127.581 87.6979 127.734 87.3307 127.818 86.8984H130.521C130.453 87.7474 130.203 88.5 129.771 89.1562C129.338 89.8073 128.75 90.3177 128.005 90.6875C127.26 91.0521 126.385 91.2344 125.38 91.2344ZM138.615 79V81.1875H131.717V79H138.615ZM133.42 76.125H136.248V87.3906C136.248 87.7708 136.305 88.0625 136.42 88.2656C136.54 88.4635 136.696 88.599 136.889 88.6719C137.081 88.7448 137.295 88.7812 137.529 88.7812C137.706 88.7812 137.868 88.7682 138.014 88.7422C138.165 88.7161 138.279 88.6927 138.357 88.6719L138.834 90.8828C138.683 90.9349 138.467 90.9922 138.185 91.0547C137.909 91.1172 137.571 91.1536 137.17 91.1641C136.462 91.1849 135.823 91.0781 135.256 90.8437C134.688 90.6042 134.238 90.2344 133.904 89.7344C133.576 89.2344 133.415 88.6094 133.42 87.8594V76.125ZM140.76 91V79H143.589V91H140.76ZM142.182 77.2969C141.734 77.2969 141.349 77.1484 141.026 76.8516C140.703 76.5495 140.542 76.1875 140.542 75.7656C140.542 75.3385 140.703 74.9766 141.026 74.6797C141.349 74.3776 141.734 74.2266 142.182 74.2266C142.635 74.2266 143.021 74.3776 143.339 74.6797C143.661 74.9766 143.823 75.3385 143.823 75.7656C143.823 76.1875 143.661 76.5495 143.339 76.8516C143.021 77.1484 142.635 77.2969 142.182 77.2969ZM151.511 91.2344C150.339 91.2344 149.324 90.9766 148.464 90.4609C147.605 89.9453 146.938 89.224 146.464 88.2969C145.995 87.3698 145.761 86.2865 145.761 85.0469C145.761 83.8073 145.995 82.7214 146.464 81.7891C146.938 80.8568 147.605 80.1328 148.464 79.6172C149.324 79.1016 150.339 78.8438 151.511 78.8438C152.683 78.8438 153.699 79.1016 154.558 79.6172C155.417 80.1328 156.081 80.8568 156.55 81.7891C157.024 82.7214 157.261 83.8073 157.261 85.0469C157.261 86.2865 157.024 87.3698 156.55 88.2969C156.081 89.224 155.417 89.9453 154.558 90.4609C153.699 90.9766 152.683 91.2344 151.511 91.2344ZM151.527 88.9687C152.162 88.9687 152.693 88.7943 153.12 88.4453C153.548 88.0911 153.865 87.6172 154.074 87.0234C154.287 86.4297 154.394 85.7682 154.394 85.0391C154.394 84.3047 154.287 83.6406 154.074 83.0469C153.865 82.4479 153.548 81.9714 153.12 81.6172C152.693 81.263 152.162 81.0859 151.527 81.0859C150.876 81.0859 150.334 81.263 149.902 81.6172C149.475 81.9714 149.154 82.4479 148.941 83.0469C148.732 83.6406 148.628 84.3047 148.628 85.0391C148.628 85.7682 148.732 86.4297 148.941 87.0234C149.154 87.6172 149.475 88.0911 149.902 88.4453C150.334 88.7943 150.876 88.9687 151.527 88.9687ZM162.27 83.9687V91H159.441V79H162.145V81.0391H162.285C162.561 80.3672 163.001 79.8333 163.606 79.4375C164.215 79.0417 164.968 78.8438 165.863 78.8438C166.691 78.8438 167.413 79.0208 168.027 79.375C168.647 79.7292 169.126 80.2422 169.465 80.9141C169.809 81.5859 169.978 82.401 169.973 83.3594V91H167.145V83.7969C167.145 82.9948 166.936 82.3672 166.52 81.9141C166.108 81.4609 165.538 81.2344 164.809 81.2344C164.314 81.2344 163.874 81.3437 163.488 81.5625C163.108 81.776 162.809 82.0859 162.59 82.4922C162.376 82.8984 162.27 83.3906 162.27 83.9687Z" fill="#272D37"/>
<path d="M10.7727 120H9.36364C9.2803 119.595 9.13447 119.239 8.92614 118.932C8.72159 118.625 8.47159 118.367 8.17614 118.159C7.88447 117.947 7.56061 117.788 7.20455 117.682C6.84849 117.576 6.47727 117.523 6.09091 117.523C5.38636 117.523 4.74811 117.701 4.17614 118.057C3.60795 118.413 3.1553 118.938 2.81818 119.631C2.48485 120.324 2.31818 121.174 2.31818 122.182C2.31818 123.189 2.48485 124.04 2.81818 124.733C3.1553 125.426 3.60795 125.951 4.17614 126.307C4.74811 126.663 5.38636 126.841 6.09091 126.841C6.47727 126.841 6.84849 126.788 7.20455 126.682C7.56061 126.576 7.88447 126.419 8.17614 126.21C8.47159 125.998 8.72159 125.739 8.92614 125.432C9.13447 125.121 9.2803 124.765 9.36364 124.364H10.7727C10.6667 124.958 10.4735 125.491 10.1932 125.96C9.91288 126.43 9.56439 126.83 9.14773 127.159C8.73106 127.485 8.26326 127.733 7.74432 127.903C7.22917 128.074 6.67803 128.159 6.09091 128.159C5.09849 128.159 4.21591 127.917 3.44318 127.432C2.67045 126.947 2.0625 126.258 1.61932 125.364C1.17614 124.47 0.954545 123.409 0.954545 122.182C0.954545 120.955 1.17614 119.894 1.61932 119C2.0625 118.106 2.67045 117.417 3.44318 116.932C4.21591 116.447 5.09849 116.205 6.09091 116.205C6.67803 116.205 7.22917 116.29 7.74432 116.46C8.26326 116.631 8.73106 116.881 9.14773 117.21C9.56439 117.536 9.91288 117.934 10.1932 118.403C10.4735 118.869 10.6667 119.402 10.7727 120ZM16.3134 128.182C15.5255 128.182 14.8342 127.994 14.2395 127.619C13.6486 127.244 13.1865 126.72 12.8531 126.045C12.5236 125.371 12.3588 124.583 12.3588 123.682C12.3588 122.773 12.5236 121.979 12.8531 121.301C13.1865 120.623 13.6486 120.097 14.2395 119.722C14.8342 119.347 15.5255 119.159 16.3134 119.159C17.1012 119.159 17.7906 119.347 18.3815 119.722C18.9762 120.097 19.4384 120.623 19.7679 121.301C20.1012 121.979 20.2679 122.773 20.2679 123.682C20.2679 124.583 20.1012 125.371 19.7679 126.045C19.4384 126.72 18.9762 127.244 18.3815 127.619C17.7906 127.994 17.1012 128.182 16.3134 128.182ZM16.3134 126.977C16.9118 126.977 17.4043 126.824 17.7906 126.517C18.177 126.21 18.463 125.807 18.6486 125.307C18.8342 124.807 18.927 124.265 18.927 123.682C18.927 123.098 18.8342 122.555 18.6486 122.051C18.463 121.547 18.177 121.14 17.7906 120.83C17.4043 120.519 16.9118 120.364 16.3134 120.364C15.7149 120.364 15.2224 120.519 14.8361 120.83C14.4497 121.14 14.1637 121.547 13.9781 122.051C13.7925 122.555 13.6997 123.098 13.6997 123.682C13.6997 124.265 13.7925 124.807 13.9781 125.307C14.1637 125.807 14.4497 126.21 14.8361 126.517C15.2224 126.824 15.7149 126.977 16.3134 126.977ZM22.2148 128V119.273H23.5102V120.636H23.6239C23.8057 120.17 24.0992 119.809 24.5045 119.551C24.9098 119.29 25.3966 119.159 25.9648 119.159C26.5405 119.159 27.0197 119.29 27.4023 119.551C27.7886 119.809 28.0898 120.17 28.3057 120.636H28.3966C28.6201 120.186 28.9553 119.828 29.4023 119.562C29.8492 119.294 30.3852 119.159 31.0102 119.159C31.7905 119.159 32.4288 119.403 32.925 119.892C33.4212 120.377 33.6693 121.133 33.6693 122.159V128H32.3284V122.159C32.3284 121.515 32.1523 121.055 31.8 120.778C31.4477 120.502 31.033 120.364 30.5557 120.364C29.942 120.364 29.4667 120.549 29.1295 120.92C28.7924 121.288 28.6239 121.754 28.6239 122.318V128H27.2602V122.023C27.2602 121.527 27.0992 121.127 26.7773 120.824C26.4553 120.517 26.0405 120.364 25.533 120.364C25.1845 120.364 24.8587 120.456 24.5557 120.642C24.2564 120.828 24.014 121.085 23.8284 121.415C23.6466 121.741 23.5557 122.117 23.5557 122.545V128H22.2148ZM36.021 131.273V119.273H37.3165V120.659H37.4756C37.5741 120.508 37.7104 120.314 37.8847 120.08C38.0627 119.841 38.3165 119.629 38.646 119.443C38.9794 119.254 39.4301 119.159 39.9983 119.159C40.7331 119.159 41.3809 119.343 41.9415 119.71C42.5021 120.078 42.9396 120.598 43.254 121.273C43.5684 121.947 43.7256 122.742 43.7256 123.659C43.7256 124.583 43.5684 125.384 43.254 126.062C42.9396 126.737 42.504 127.259 41.9472 127.631C41.3903 127.998 40.7483 128.182 40.021 128.182C39.4604 128.182 39.0116 128.089 38.6744 127.903C38.3373 127.714 38.0778 127.5 37.896 127.261C37.7142 127.019 37.5741 126.818 37.4756 126.659H37.3619V131.273H36.021ZM37.3392 123.636C37.3392 124.295 37.4358 124.877 37.629 125.381C37.8222 125.881 38.1044 126.273 38.4756 126.557C38.8468 126.837 39.3013 126.977 39.8392 126.977C40.3998 126.977 40.8676 126.83 41.2426 126.534C41.6214 126.235 41.9055 125.833 42.0949 125.33C42.2881 124.822 42.3847 124.258 42.3847 123.636C42.3847 123.023 42.29 122.47 42.1006 121.977C41.915 121.481 41.6328 121.089 41.254 120.801C40.879 120.509 40.4074 120.364 39.8392 120.364C39.2938 120.364 38.8354 120.502 38.4642 120.778C38.093 121.051 37.8127 121.434 37.6233 121.926C37.4339 122.415 37.3392 122.985 37.3392 123.636ZM47.0119 116.364V128H45.671V116.364H47.0119ZM53.027 128.182C52.1861 128.182 51.4607 127.996 50.8509 127.625C50.2448 127.25 49.777 126.727 49.4474 126.057C49.1217 125.383 48.9588 124.598 48.9588 123.705C48.9588 122.811 49.1217 122.023 49.4474 121.341C49.777 120.655 50.2353 120.121 50.8224 119.739C51.4134 119.352 52.1027 119.159 52.8906 119.159C53.3452 119.159 53.794 119.235 54.2372 119.386C54.6804 119.538 55.0838 119.784 55.4474 120.125C55.8111 120.462 56.1009 120.909 56.3168 121.466C56.5327 122.023 56.6406 122.708 56.6406 123.523V124.091H49.9134V122.932H55.277C55.277 122.439 55.1785 122 54.9815 121.614C54.7884 121.227 54.5118 120.922 54.152 120.699C53.7959 120.475 53.3755 120.364 52.8906 120.364C52.3565 120.364 51.8944 120.496 51.5043 120.761C51.1179 121.023 50.8205 121.364 50.6122 121.784C50.4039 122.205 50.2997 122.655 50.2997 123.136V123.909C50.2997 124.568 50.4134 125.127 50.6406 125.585C50.8717 126.04 51.1918 126.386 51.6009 126.625C52.0099 126.86 52.4853 126.977 53.027 126.977C53.3793 126.977 53.6974 126.928 53.9815 126.83C54.2694 126.727 54.5175 126.576 54.7259 126.375C54.9342 126.17 55.0952 125.917 55.2088 125.614L56.5043 125.977C56.3679 126.417 56.1387 126.803 55.8168 127.136C55.4948 127.466 55.0971 127.723 54.6236 127.909C54.1501 128.091 53.6179 128.182 53.027 128.182ZM62.3759 119.273V120.409H57.8531V119.273H62.3759ZM59.1713 117.182H60.5122V125.5C60.5122 125.879 60.5671 126.163 60.677 126.352C60.7906 126.538 60.9346 126.663 61.1088 126.727C61.2868 126.788 61.4743 126.818 61.6713 126.818C61.819 126.818 61.9402 126.811 62.0349 126.795C62.1296 126.777 62.2054 126.761 62.2622 126.75L62.5349 127.955C62.444 127.989 62.3171 128.023 62.1543 128.057C61.9914 128.095 61.7849 128.114 61.5349 128.114C61.1562 128.114 60.7849 128.032 60.4213 127.869C60.0615 127.706 59.7622 127.458 59.5236 127.125C59.2887 126.792 59.1713 126.371 59.1713 125.864V117.182ZM67.8582 128.182C67.0173 128.182 66.2919 127.996 65.6821 127.625C65.076 127.25 64.6082 126.727 64.2787 126.057C63.9529 125.383 63.7901 124.598 63.7901 123.705C63.7901 122.811 63.9529 122.023 64.2787 121.341C64.6082 120.655 65.0666 120.121 65.6537 119.739C66.2446 119.352 66.934 119.159 67.7219 119.159C68.1764 119.159 68.6253 119.235 69.0685 119.386C69.5116 119.538 69.9151 119.784 70.2787 120.125C70.6423 120.462 70.9321 120.909 71.148 121.466C71.3639 122.023 71.4719 122.708 71.4719 123.523V124.091H64.7446V122.932H70.1082C70.1082 122.439 70.0098 122 69.8128 121.614C69.6196 121.227 69.3431 120.922 68.9832 120.699C68.6272 120.475 68.2067 120.364 67.7219 120.364C67.1878 120.364 66.7257 120.496 66.3355 120.761C65.9491 121.023 65.6518 121.364 65.4435 121.784C65.2351 122.205 65.131 122.655 65.131 123.136V123.909C65.131 124.568 65.2446 125.127 65.4719 125.585C65.7029 126.04 66.023 126.386 66.4321 126.625C66.8412 126.86 67.3166 126.977 67.8582 126.977C68.2105 126.977 68.5287 126.928 68.8128 126.83C69.1007 126.727 69.3488 126.576 69.5571 126.375C69.7654 126.17 69.9264 125.917 70.0401 125.614L71.3355 125.977C71.1991 126.417 70.97 126.803 70.648 127.136C70.326 127.466 69.9283 127.723 69.4548 127.909C68.9813 128.091 68.4491 128.182 67.8582 128.182ZM74.7526 116.364V128H73.4116V116.364H74.7526ZM77.9722 131.273C77.7449 131.273 77.5422 131.254 77.3642 131.216C77.1862 131.182 77.0631 131.148 76.9949 131.114L77.3358 129.932C77.6616 130.015 77.9494 130.045 78.1994 130.023C78.4494 130 78.671 129.888 78.8642 129.688C79.0612 129.491 79.2411 129.17 79.404 128.727L79.654 128.045L76.4267 119.273H77.8812L80.2903 126.227H80.3812L82.7903 119.273H84.2449L80.5403 129.273C80.3737 129.723 80.1672 130.097 79.921 130.392C79.6748 130.691 79.3888 130.913 79.0631 131.057C78.7411 131.201 78.3775 131.273 77.9722 131.273ZM90.3148 131.273V119.273H91.6102V120.659H91.7693C91.8678 120.508 92.0042 120.314 92.1784 120.08C92.3564 119.841 92.6102 119.629 92.9398 119.443C93.2731 119.254 93.7239 119.159 94.292 119.159C95.0269 119.159 95.6746 119.343 96.2352 119.71C96.7958 120.078 97.2333 120.598 97.5477 121.273C97.8621 121.947 98.0193 122.742 98.0193 123.659C98.0193 124.583 97.8621 125.384 97.5477 126.062C97.2333 126.737 96.7977 127.259 96.2409 127.631C95.6841 127.998 95.042 128.182 94.3148 128.182C93.7542 128.182 93.3053 128.089 92.9682 127.903C92.6311 127.714 92.3716 127.5 92.1898 127.261C92.008 127.019 91.8678 126.818 91.7693 126.659H91.6557V131.273H90.3148ZM91.633 123.636C91.633 124.295 91.7295 124.877 91.9227 125.381C92.1159 125.881 92.3981 126.273 92.7693 126.557C93.1405 126.837 93.5951 126.977 94.133 126.977C94.6936 126.977 95.1614 126.83 95.5364 126.534C95.9152 126.235 96.1992 125.833 96.3886 125.33C96.5818 124.822 96.6784 124.258 96.6784 123.636C96.6784 123.023 96.5837 122.47 96.3943 121.977C96.2087 121.481 95.9265 121.089 95.5477 120.801C95.1727 120.509 94.7011 120.364 94.133 120.364C93.5875 120.364 93.1292 120.502 92.758 120.778C92.3867 121.051 92.1064 121.434 91.917 121.926C91.7277 122.415 91.633 122.985 91.633 123.636ZM105.465 124.432V119.273H106.806V128H105.465V126.523H105.374C105.169 126.966 104.851 127.343 104.419 127.653C103.988 127.96 103.442 128.114 102.783 128.114C102.238 128.114 101.753 127.994 101.328 127.756C100.904 127.513 100.571 127.15 100.328 126.665C100.086 126.176 99.9648 125.561 99.9648 124.818V119.273H101.306V124.727C101.306 125.364 101.484 125.871 101.84 126.25C102.2 126.629 102.658 126.818 103.215 126.818C103.548 126.818 103.887 126.733 104.232 126.562C104.58 126.392 104.872 126.131 105.107 125.778C105.345 125.426 105.465 124.977 105.465 124.432ZM109.162 128V119.273H110.457V120.591H110.548C110.707 120.159 110.995 119.809 111.412 119.54C111.828 119.271 112.298 119.136 112.821 119.136C112.919 119.136 113.042 119.138 113.19 119.142C113.338 119.146 113.45 119.152 113.525 119.159V120.523C113.48 120.511 113.376 120.494 113.213 120.472C113.054 120.445 112.885 120.432 112.707 120.432C112.283 120.432 111.904 120.521 111.571 120.699C111.241 120.873 110.98 121.116 110.787 121.426C110.597 121.733 110.503 122.083 110.503 122.477V128H109.162ZM121.197 121.227L119.992 121.568C119.916 121.367 119.805 121.172 119.657 120.983C119.513 120.79 119.316 120.631 119.066 120.506C118.816 120.381 118.496 120.318 118.106 120.318C117.572 120.318 117.127 120.441 116.77 120.688C116.418 120.93 116.242 121.239 116.242 121.614C116.242 121.947 116.363 122.21 116.606 122.403C116.848 122.597 117.227 122.758 117.742 122.886L119.037 123.205C119.818 123.394 120.399 123.684 120.782 124.074C121.164 124.46 121.356 124.958 121.356 125.568C121.356 126.068 121.212 126.515 120.924 126.909C120.64 127.303 120.242 127.614 119.731 127.841C119.219 128.068 118.625 128.182 117.947 128.182C117.056 128.182 116.32 127.989 115.736 127.602C115.153 127.216 114.784 126.652 114.628 125.909L115.901 125.591C116.022 126.061 116.252 126.413 116.589 126.648C116.93 126.883 117.375 127 117.924 127C118.549 127 119.045 126.867 119.412 126.602C119.784 126.333 119.969 126.011 119.969 125.636C119.969 125.333 119.863 125.08 119.651 124.875C119.439 124.667 119.113 124.511 118.674 124.409L117.219 124.068C116.42 123.879 115.833 123.585 115.458 123.188C115.087 122.786 114.901 122.284 114.901 121.682C114.901 121.189 115.039 120.754 115.316 120.375C115.596 119.996 115.977 119.699 116.458 119.483C116.943 119.267 117.492 119.159 118.106 119.159C118.969 119.159 119.647 119.348 120.14 119.727C120.636 120.106 120.988 120.606 121.197 121.227ZM128.774 124.432V119.273H130.115V128H128.774V126.523H128.683C128.479 126.966 128.161 127.343 127.729 127.653C127.297 127.96 126.751 128.114 126.092 128.114C125.547 128.114 125.062 127.994 124.638 127.756C124.214 127.513 123.88 127.15 123.638 126.665C123.395 126.176 123.274 125.561 123.274 124.818V119.273H124.615V124.727C124.615 125.364 124.793 125.871 125.149 126.25C125.509 126.629 125.967 126.818 126.524 126.818C126.857 126.818 127.196 126.733 127.541 126.562C127.89 126.392 128.181 126.131 128.416 125.778C128.655 125.426 128.774 124.977 128.774 124.432ZM136.13 128.182C135.289 128.182 134.564 127.996 133.954 127.625C133.348 127.25 132.88 126.727 132.551 126.057C132.225 125.383 132.062 124.598 132.062 123.705C132.062 122.811 132.225 122.023 132.551 121.341C132.88 120.655 133.338 120.121 133.926 119.739C134.516 119.352 135.206 119.159 135.994 119.159C136.448 119.159 136.897 119.235 137.34 119.386C137.784 119.538 138.187 119.784 138.551 120.125C138.914 120.462 139.204 120.909 139.42 121.466C139.636 122.023 139.744 122.708 139.744 123.523V124.091H133.016V122.932H138.38C138.38 122.439 138.282 122 138.085 121.614C137.891 121.227 137.615 120.922 137.255 120.699C136.899 120.475 136.479 120.364 135.994 120.364C135.46 120.364 134.998 120.496 134.607 120.761C134.221 121.023 133.924 121.364 133.715 121.784C133.507 122.205 133.403 122.655 133.403 123.136V123.909C133.403 124.568 133.516 125.127 133.744 125.585C133.975 126.04 134.295 126.386 134.704 126.625C135.113 126.86 135.588 126.977 136.13 126.977C136.482 126.977 136.801 126.928 137.085 126.83C137.373 126.727 137.621 126.576 137.829 126.375C138.037 126.17 138.198 125.917 138.312 125.614L139.607 125.977C139.471 126.417 139.242 126.803 138.92 127.136C138.598 127.466 138.2 127.723 137.727 127.909C137.253 128.091 136.721 128.182 136.13 128.182ZM152.265 121.227L151.061 121.568C150.985 121.367 150.873 121.172 150.726 120.983C150.582 120.79 150.385 120.631 150.135 120.506C149.885 120.381 149.565 120.318 149.174 120.318C148.64 120.318 148.195 120.441 147.839 120.688C147.487 120.93 147.311 121.239 147.311 121.614C147.311 121.947 147.432 122.21 147.674 122.403C147.917 122.597 148.296 122.758 148.811 122.886L150.106 123.205C150.887 123.394 151.468 123.684 151.851 124.074C152.233 124.46 152.424 124.958 152.424 125.568C152.424 126.068 152.28 126.515 151.993 126.909C151.709 127.303 151.311 127.614 150.799 127.841C150.288 128.068 149.693 128.182 149.015 128.182C148.125 128.182 147.388 127.989 146.805 127.602C146.222 127.216 145.852 126.652 145.697 125.909L146.97 125.591C147.091 126.061 147.32 126.413 147.657 126.648C147.998 126.883 148.443 127 148.993 127C149.618 127 150.114 126.867 150.481 126.602C150.852 126.333 151.038 126.011 151.038 125.636C151.038 125.333 150.932 125.08 150.72 124.875C150.508 124.667 150.182 124.511 149.743 124.409L148.288 124.068C147.489 123.879 146.902 123.585 146.527 123.188C146.155 122.786 145.97 122.284 145.97 121.682C145.97 121.189 146.108 120.754 146.385 120.375C146.665 119.996 147.046 119.699 147.527 119.483C148.012 119.267 148.561 119.159 149.174 119.159C150.038 119.159 150.716 119.348 151.209 119.727C151.705 120.106 152.057 120.606 152.265 121.227ZM157.888 128.182C157.07 128.182 156.366 127.989 155.775 127.602C155.184 127.216 154.729 126.684 154.411 126.006C154.093 125.328 153.934 124.553 153.934 123.682C153.934 122.795 154.097 122.013 154.422 121.335C154.752 120.653 155.21 120.121 155.797 119.739C156.388 119.352 157.078 119.159 157.866 119.159C158.479 119.159 159.032 119.273 159.525 119.5C160.017 119.727 160.421 120.045 160.735 120.455C161.049 120.864 161.244 121.341 161.32 121.886H159.979C159.877 121.489 159.65 121.136 159.297 120.83C158.949 120.519 158.479 120.364 157.888 120.364C157.366 120.364 156.907 120.5 156.513 120.773C156.123 121.042 155.818 121.422 155.599 121.915C155.383 122.403 155.275 122.977 155.275 123.636C155.275 124.311 155.381 124.898 155.593 125.398C155.809 125.898 156.112 126.286 156.502 126.562C156.896 126.839 157.358 126.977 157.888 126.977C158.237 126.977 158.553 126.917 158.837 126.795C159.121 126.674 159.362 126.5 159.559 126.273C159.756 126.045 159.896 125.773 159.979 125.455H161.32C161.244 125.97 161.057 126.434 160.758 126.847C160.462 127.256 160.07 127.581 159.582 127.824C159.097 128.062 158.532 128.182 157.888 128.182ZM165.749 128.205C165.196 128.205 164.694 128.1 164.243 127.892C163.792 127.68 163.434 127.375 163.169 126.977C162.904 126.576 162.771 126.091 162.771 125.523C162.771 125.023 162.87 124.617 163.067 124.307C163.264 123.992 163.527 123.746 163.857 123.568C164.186 123.39 164.55 123.258 164.947 123.17C165.349 123.08 165.752 123.008 166.158 122.955C166.688 122.886 167.118 122.835 167.447 122.801C167.781 122.763 168.023 122.701 168.175 122.614C168.33 122.527 168.408 122.375 168.408 122.159V122.114C168.408 121.553 168.254 121.117 167.947 120.807C167.644 120.496 167.184 120.341 166.567 120.341C165.927 120.341 165.425 120.481 165.061 120.761C164.697 121.042 164.442 121.341 164.294 121.659L163.021 121.205C163.249 120.674 163.552 120.261 163.93 119.966C164.313 119.667 164.73 119.458 165.18 119.341C165.635 119.22 166.082 119.159 166.521 119.159C166.802 119.159 167.124 119.193 167.487 119.261C167.855 119.326 168.209 119.46 168.55 119.665C168.894 119.869 169.18 120.178 169.408 120.591C169.635 121.004 169.749 121.557 169.749 122.25V128H168.408V126.818H168.339C168.249 127.008 168.097 127.21 167.885 127.426C167.673 127.642 167.391 127.826 167.038 127.977C166.686 128.129 166.256 128.205 165.749 128.205ZM165.953 127C166.483 127 166.93 126.896 167.294 126.688C167.661 126.479 167.938 126.21 168.124 125.881C168.313 125.551 168.408 125.205 168.408 124.841V123.614C168.351 123.682 168.226 123.744 168.033 123.801C167.843 123.854 167.624 123.902 167.374 123.943C167.127 123.981 166.887 124.015 166.652 124.045C166.421 124.072 166.233 124.095 166.089 124.114C165.741 124.159 165.415 124.233 165.112 124.335C164.813 124.434 164.571 124.583 164.385 124.784C164.203 124.981 164.112 125.25 164.112 125.591C164.112 126.057 164.285 126.409 164.629 126.648C164.978 126.883 165.419 127 165.953 127ZM173.437 116.364V128H172.096V116.364H173.437ZM178.361 128.205C177.808 128.205 177.306 128.1 176.855 127.892C176.405 127.68 176.047 127.375 175.782 126.977C175.516 126.576 175.384 126.091 175.384 125.523C175.384 125.023 175.482 124.617 175.679 124.307C175.876 123.992 176.139 123.746 176.469 123.568C176.799 123.39 177.162 123.258 177.56 123.17C177.961 123.08 178.365 123.008 178.77 122.955C179.3 122.886 179.73 122.835 180.06 122.801C180.393 122.763 180.636 122.701 180.787 122.614C180.943 122.527 181.02 122.375 181.02 122.159V122.114C181.02 121.553 180.867 121.117 180.56 120.807C180.257 120.496 179.797 120.341 179.179 120.341C178.539 120.341 178.037 120.481 177.674 120.761C177.31 121.042 177.054 121.341 176.907 121.659L175.634 121.205C175.861 120.674 176.164 120.261 176.543 119.966C176.925 119.667 177.342 119.458 177.793 119.341C178.247 119.22 178.694 119.159 179.134 119.159C179.414 119.159 179.736 119.193 180.1 119.261C180.467 119.326 180.821 119.46 181.162 119.665C181.507 119.869 181.793 120.178 182.02 120.591C182.247 121.004 182.361 121.557 182.361 122.25V128H181.02V126.818H180.952C180.861 127.008 180.71 127.21 180.497 127.426C180.285 127.642 180.003 127.826 179.651 127.977C179.299 128.129 178.869 128.205 178.361 128.205ZM178.566 127C179.096 127 179.543 126.896 179.907 126.688C180.274 126.479 180.55 126.21 180.736 125.881C180.925 125.551 181.02 125.205 181.02 124.841V123.614C180.963 123.682 180.838 123.744 180.645 123.801C180.456 123.854 180.236 123.902 179.986 123.943C179.74 123.981 179.499 124.015 179.264 124.045C179.033 124.072 178.846 124.095 178.702 124.114C178.354 124.159 178.028 124.233 177.725 124.335C177.425 124.434 177.183 124.583 176.997 124.784C176.816 124.981 176.725 125.25 176.725 125.591C176.725 126.057 176.897 126.409 177.242 126.648C177.59 126.883 178.032 127 178.566 127ZM184.89 128V116.364H186.231V120.659H186.345C186.443 120.508 186.58 120.314 186.754 120.08C186.932 119.841 187.186 119.629 187.515 119.443C187.849 119.254 188.299 119.159 188.868 119.159C189.602 119.159 190.25 119.343 190.811 119.71C191.371 120.078 191.809 120.598 192.123 121.273C192.438 121.947 192.595 122.742 192.595 123.659C192.595 124.583 192.438 125.384 192.123 126.062C191.809 126.737 191.373 127.259 190.816 127.631C190.26 127.998 189.618 128.182 188.89 128.182C188.33 128.182 187.881 128.089 187.544 127.903C187.207 127.714 186.947 127.5 186.765 127.261C186.584 127.019 186.443 126.818 186.345 126.659H186.186V128H184.89ZM186.209 123.636C186.209 124.295 186.305 124.877 186.498 125.381C186.691 125.881 186.974 126.273 187.345 126.557C187.716 126.837 188.171 126.977 188.709 126.977C189.269 126.977 189.737 126.83 190.112 126.534C190.491 126.235 190.775 125.833 190.964 125.33C191.157 124.822 191.254 124.258 191.254 123.636C191.254 123.023 191.159 122.47 190.97 121.977C190.784 121.481 190.502 121.089 190.123 120.801C189.748 120.509 189.277 120.364 188.709 120.364C188.163 120.364 187.705 120.502 187.334 120.778C186.962 121.051 186.682 121.434 186.493 121.926C186.303 122.415 186.209 122.985 186.209 123.636ZM195.887 116.364V128H194.546V116.364H195.887ZM201.902 128.182C201.061 128.182 200.336 127.996 199.726 127.625C199.12 127.25 198.652 126.727 198.322 126.057C197.997 125.383 197.834 124.598 197.834 123.705C197.834 122.811 197.997 122.023 198.322 121.341C198.652 120.655 199.11 120.121 199.697 119.739C200.288 119.352 200.978 119.159 201.766 119.159C202.22 119.159 202.669 119.235 203.112 119.386C203.555 119.538 203.959 119.784 204.322 120.125C204.686 120.462 204.976 120.909 205.192 121.466C205.408 122.023 205.516 122.708 205.516 123.523V124.091H198.788V122.932H204.152C204.152 122.439 204.054 122 203.857 121.614C203.663 121.227 203.387 120.922 203.027 120.699C202.671 120.475 202.25 120.364 201.766 120.364C201.232 120.364 200.769 120.496 200.379 120.761C199.993 121.023 199.696 121.364 199.487 121.784C199.279 122.205 199.175 122.655 199.175 123.136V123.909C199.175 124.568 199.288 125.127 199.516 125.585C199.747 126.04 200.067 126.386 200.476 126.625C200.885 126.86 201.36 126.977 201.902 126.977C202.254 126.977 202.572 126.928 202.857 126.83C203.144 126.727 203.393 126.576 203.601 126.375C203.809 126.17 203.97 125.917 204.084 125.614L205.379 125.977C205.243 126.417 205.014 126.803 204.692 127.136C204.37 127.466 203.972 127.723 203.499 127.909C203.025 128.091 202.493 128.182 201.902 128.182ZM215.401 128.182C214.583 128.182 213.878 127.989 213.287 127.602C212.696 127.216 212.242 126.684 211.924 126.006C211.605 125.328 211.446 124.553 211.446 123.682C211.446 122.795 211.609 122.013 211.935 121.335C212.264 120.653 212.723 120.121 213.31 119.739C213.901 119.352 214.59 119.159 215.378 119.159C215.992 119.159 216.545 119.273 217.037 119.5C217.53 119.727 217.933 120.045 218.247 120.455C218.562 120.864 218.757 121.341 218.833 121.886H217.492C217.389 121.489 217.162 121.136 216.81 120.83C216.461 120.519 215.992 120.364 215.401 120.364C214.878 120.364 214.42 120.5 214.026 120.773C213.636 121.042 213.331 121.422 213.111 121.915C212.895 122.403 212.787 122.977 212.787 123.636C212.787 124.311 212.893 124.898 213.105 125.398C213.321 125.898 213.624 126.286 214.014 126.562C214.408 126.839 214.871 126.977 215.401 126.977C215.749 126.977 216.066 126.917 216.35 126.795C216.634 126.674 216.874 126.5 217.071 126.273C217.268 126.045 217.408 125.773 217.492 125.455H218.833C218.757 125.97 218.569 126.434 218.27 126.847C217.975 127.256 217.583 127.581 217.094 127.824C216.609 128.062 216.045 128.182 215.401 128.182ZM226.193 124.432V119.273H227.534V128H226.193V126.523H226.102C225.897 126.966 225.579 127.343 225.147 127.653C224.716 127.96 224.17 128.114 223.511 128.114C222.966 128.114 222.481 127.994 222.057 127.756C221.632 127.513 221.299 127.15 221.057 126.665C220.814 126.176 220.693 125.561 220.693 124.818V119.273H222.034V124.727C222.034 125.364 222.212 125.871 222.568 126.25C222.928 126.629 223.386 126.818 223.943 126.818C224.276 126.818 224.615 126.733 224.96 126.562C225.308 126.392 225.6 126.131 225.835 125.778C226.074 125.426 226.193 124.977 226.193 124.432ZM236.072 121.227L234.867 121.568C234.791 121.367 234.68 121.172 234.532 120.983C234.388 120.79 234.191 120.631 233.941 120.506C233.691 120.381 233.371 120.318 232.981 120.318C232.447 120.318 232.002 120.441 231.645 120.688C231.293 120.93 231.117 121.239 231.117 121.614C231.117 121.947 231.238 122.21 231.481 122.403C231.723 122.597 232.102 122.758 232.617 122.886L233.913 123.205C234.693 123.394 235.274 123.684 235.657 124.074C236.039 124.46 236.231 124.958 236.231 125.568C236.231 126.068 236.087 126.515 235.799 126.909C235.515 127.303 235.117 127.614 234.606 127.841C234.094 128.068 233.5 128.182 232.822 128.182C231.931 128.182 231.195 127.989 230.611 127.602C230.028 127.216 229.659 126.652 229.503 125.909L230.776 125.591C230.897 126.061 231.127 126.413 231.464 126.648C231.805 126.883 232.25 127 232.799 127C233.424 127 233.92 126.867 234.288 126.602C234.659 126.333 234.844 126.011 234.844 125.636C234.844 125.333 234.738 125.08 234.526 124.875C234.314 124.667 233.988 124.511 233.549 124.409L232.094 124.068C231.295 123.879 230.708 123.585 230.333 123.188C229.962 122.786 229.776 122.284 229.776 121.682C229.776 121.189 229.914 120.754 230.191 120.375C230.471 119.996 230.852 119.699 231.333 119.483C231.818 119.267 232.367 119.159 232.981 119.159C233.844 119.159 234.522 119.348 235.015 119.727C235.511 120.106 235.863 120.606 236.072 121.227ZM241.945 119.273V120.409H237.422V119.273H241.945ZM238.74 117.182H240.081V125.5C240.081 125.879 240.136 126.163 240.246 126.352C240.359 126.538 240.503 126.663 240.678 126.727C240.856 126.788 241.043 126.818 241.24 126.818C241.388 126.818 241.509 126.811 241.604 126.795C241.698 126.777 241.774 126.761 241.831 126.75L242.104 127.955C242.013 127.989 241.886 128.023 241.723 128.057C241.56 128.095 241.354 128.114 241.104 128.114C240.725 128.114 240.354 128.032 239.99 127.869C239.63 127.706 239.331 127.458 239.092 127.125C238.857 126.792 238.74 126.371 238.74 125.864V117.182ZM247.313 128.182C246.525 128.182 245.834 127.994 245.239 127.619C244.649 127.244 244.186 126.72 243.853 126.045C243.524 125.371 243.359 124.583 243.359 123.682C243.359 122.773 243.524 121.979 243.853 121.301C244.186 120.623 244.649 120.097 245.239 119.722C245.834 119.347 246.525 119.159 247.313 119.159C248.101 119.159 248.791 119.347 249.382 119.722C249.976 120.097 250.438 120.623 250.768 121.301C251.101 121.979 251.268 122.773 251.268 123.682C251.268 124.583 251.101 125.371 250.768 126.045C250.438 126.72 249.976 127.244 249.382 127.619C248.791 127.994 248.101 128.182 247.313 128.182ZM247.313 126.977C247.912 126.977 248.404 126.824 248.791 126.517C249.177 126.21 249.463 125.807 249.649 125.307C249.834 124.807 249.927 124.265 249.927 123.682C249.927 123.098 249.834 122.555 249.649 122.051C249.463 121.547 249.177 121.14 248.791 120.83C248.404 120.519 247.912 120.364 247.313 120.364C246.715 120.364 246.222 120.519 245.836 120.83C245.45 121.14 245.164 121.547 244.978 122.051C244.793 122.555 244.7 123.098 244.7 123.682C244.7 124.265 244.793 124.807 244.978 125.307C245.164 125.807 245.45 126.21 245.836 126.517C246.222 126.824 246.715 126.977 247.313 126.977ZM253.215 128V119.273H254.51V120.636H254.624C254.806 120.17 255.099 119.809 255.505 119.551C255.91 119.29 256.397 119.159 256.965 119.159C257.541 119.159 258.02 119.29 258.402 119.551C258.789 119.809 259.09 120.17 259.306 120.636H259.397C259.62 120.186 259.955 119.828 260.402 119.562C260.849 119.294 261.385 119.159 262.01 119.159C262.791 119.159 263.429 119.403 263.925 119.892C264.421 120.377 264.669 121.133 264.669 122.159V128H263.328V122.159C263.328 121.515 263.152 121.055 262.8 120.778C262.448 120.502 262.033 120.364 261.556 120.364C260.942 120.364 260.467 120.549 260.13 120.92C259.792 121.288 259.624 121.754 259.624 122.318V128H258.26V122.023C258.26 121.527 258.099 121.127 257.777 120.824C257.455 120.517 257.041 120.364 256.533 120.364C256.184 120.364 255.859 120.456 255.556 120.642C255.256 120.828 255.014 121.085 254.828 121.415C254.647 121.741 254.556 122.117 254.556 122.545V128H253.215ZM270.68 128.182C269.839 128.182 269.114 127.996 268.504 127.625C267.898 127.25 267.43 126.727 267.101 126.057C266.775 125.383 266.612 124.598 266.612 123.705C266.612 122.811 266.775 122.023 267.101 121.341C267.43 120.655 267.888 120.121 268.476 119.739C269.066 119.352 269.756 119.159 270.544 119.159C270.998 119.159 271.447 119.235 271.89 119.386C272.334 119.538 272.737 119.784 273.101 120.125C273.464 120.462 273.754 120.909 273.97 121.466C274.186 122.023 274.294 122.708 274.294 123.523V124.091H267.566V122.932H272.93C272.93 122.439 272.832 122 272.635 121.614C272.441 121.227 272.165 120.922 271.805 120.699C271.449 120.475 271.029 120.364 270.544 120.364C270.01 120.364 269.548 120.496 269.157 120.761C268.771 121.023 268.474 121.364 268.265 121.784C268.057 122.205 267.953 122.655 267.953 123.136V123.909C267.953 124.568 268.066 125.127 268.294 125.585C268.525 126.04 268.845 126.386 269.254 126.625C269.663 126.86 270.138 126.977 270.68 126.977C271.032 126.977 271.351 126.928 271.635 126.83C271.923 126.727 272.171 126.576 272.379 126.375C272.587 126.17 272.748 125.917 272.862 125.614L274.157 125.977C274.021 126.417 273.792 126.803 273.47 127.136C273.148 127.466 272.75 127.723 272.277 127.909C271.803 128.091 271.271 128.182 270.68 128.182ZM276.234 128V119.273H277.529V120.591H277.62C277.779 120.159 278.067 119.809 278.484 119.54C278.9 119.271 279.37 119.136 279.893 119.136C279.991 119.136 280.114 119.138 280.262 119.142C280.41 119.146 280.521 119.152 280.597 119.159V120.523C280.552 120.511 280.448 120.494 280.285 120.472C280.126 120.445 279.957 120.432 279.779 120.432C279.355 120.432 278.976 120.521 278.643 120.699C278.313 120.873 278.052 121.116 277.859 121.426C277.669 121.733 277.574 122.083 277.574 122.477V128H276.234ZM290.032 128.182C289.214 128.182 288.509 127.989 287.918 127.602C287.328 127.216 286.873 126.684 286.555 126.006C286.237 125.328 286.078 124.553 286.078 123.682C286.078 122.795 286.24 122.013 286.566 121.335C286.896 120.653 287.354 120.121 287.941 119.739C288.532 119.352 289.221 119.159 290.009 119.159C290.623 119.159 291.176 119.273 291.668 119.5C292.161 119.727 292.564 120.045 292.879 120.455C293.193 120.864 293.388 121.341 293.464 121.886H292.123C292.021 121.489 291.793 121.136 291.441 120.83C291.093 120.519 290.623 120.364 290.032 120.364C289.509 120.364 289.051 120.5 288.657 120.773C288.267 121.042 287.962 121.422 287.742 121.915C287.526 122.403 287.418 122.977 287.418 123.636C287.418 124.311 287.525 124.898 287.737 125.398C287.953 125.898 288.256 126.286 288.646 126.562C289.04 126.839 289.502 126.977 290.032 126.977C290.381 126.977 290.697 126.917 290.981 126.795C291.265 126.674 291.506 126.5 291.703 126.273C291.9 126.045 292.04 125.773 292.123 125.455H293.464C293.388 125.97 293.201 126.434 292.901 126.847C292.606 127.256 292.214 127.581 291.725 127.824C291.24 128.062 290.676 128.182 290.032 128.182ZM295.324 128V119.273H296.62V120.591H296.71C296.87 120.159 297.157 119.809 297.574 119.54C297.991 119.271 298.46 119.136 298.983 119.136C299.082 119.136 299.205 119.138 299.353 119.142C299.5 119.146 299.612 119.152 299.688 119.159V120.523C299.642 120.511 299.538 120.494 299.375 120.472C299.216 120.445 299.048 120.432 298.87 120.432C298.445 120.432 298.067 120.521 297.733 120.699C297.404 120.873 297.142 121.116 296.949 121.426C296.76 121.733 296.665 122.083 296.665 122.477V128H295.324ZM304.457 128.182C303.669 128.182 302.978 127.994 302.383 127.619C301.792 127.244 301.33 126.72 300.997 126.045C300.667 125.371 300.503 124.583 300.503 123.682C300.503 122.773 300.667 121.979 300.997 121.301C301.33 120.623 301.792 120.097 302.383 119.722C302.978 119.347 303.669 119.159 304.457 119.159C305.245 119.159 305.934 119.347 306.525 119.722C307.12 120.097 307.582 120.623 307.912 121.301C308.245 121.979 308.412 122.773 308.412 123.682C308.412 124.583 308.245 125.371 307.912 126.045C307.582 126.72 307.12 127.244 306.525 127.619C305.934 127.994 305.245 128.182 304.457 128.182ZM304.457 126.977C305.056 126.977 305.548 126.824 305.934 126.517C306.321 126.21 306.607 125.807 306.792 125.307C306.978 124.807 307.071 124.265 307.071 123.682C307.071 123.098 306.978 122.555 306.792 122.051C306.607 121.547 306.321 121.14 305.934 120.83C305.548 120.519 305.056 120.364 304.457 120.364C303.859 120.364 303.366 120.519 302.98 120.83C302.593 121.14 302.307 121.547 302.122 122.051C301.936 122.555 301.843 123.098 301.843 123.682C301.843 124.265 301.936 124.807 302.122 125.307C302.307 125.807 302.593 126.21 302.98 126.517C303.366 126.824 303.859 126.977 304.457 126.977ZM316.54 121.227L315.336 121.568C315.26 121.367 315.148 121.172 315.001 120.983C314.857 120.79 314.66 120.631 314.41 120.506C314.16 120.381 313.84 120.318 313.449 120.318C312.915 120.318 312.47 120.441 312.114 120.688C311.762 120.93 311.586 121.239 311.586 121.614C311.586 121.947 311.707 122.21 311.949 122.403C312.192 122.597 312.571 122.758 313.086 122.886L314.381 123.205C315.162 123.394 315.743 123.684 316.126 124.074C316.508 124.46 316.699 124.958 316.699 125.568C316.699 126.068 316.555 126.515 316.268 126.909C315.984 127.303 315.586 127.614 315.074 127.841C314.563 128.068 313.968 128.182 313.29 128.182C312.4 128.182 311.663 127.989 311.08 127.602C310.497 127.216 310.127 126.652 309.972 125.909L311.245 125.591C311.366 126.061 311.595 126.413 311.932 126.648C312.273 126.883 312.718 127 313.268 127C313.893 127 314.389 126.867 314.756 126.602C315.127 126.333 315.313 126.011 315.313 125.636C315.313 125.333 315.207 125.08 314.995 124.875C314.783 124.667 314.457 124.511 314.018 124.409L312.563 124.068C311.764 123.879 311.177 123.585 310.802 123.188C310.43 122.786 310.245 122.284 310.245 121.682C310.245 121.189 310.383 120.754 310.66 120.375C310.94 119.996 311.321 119.699 311.802 119.483C312.287 119.267 312.836 119.159 313.449 119.159C314.313 119.159 314.991 119.348 315.484 119.727C315.98 120.106 316.332 120.606 316.54 121.227ZM324.8 121.227L323.595 121.568C323.519 121.367 323.408 121.172 323.26 120.983C323.116 120.79 322.919 120.631 322.669 120.506C322.419 120.381 322.099 120.318 321.709 120.318C321.175 120.318 320.73 120.441 320.374 120.688C320.021 120.93 319.845 121.239 319.845 121.614C319.845 121.947 319.966 122.21 320.209 122.403C320.451 122.597 320.83 122.758 321.345 122.886L322.641 123.205C323.421 123.394 324.002 123.684 324.385 124.074C324.768 124.46 324.959 124.958 324.959 125.568C324.959 126.068 324.815 126.515 324.527 126.909C324.243 127.303 323.845 127.614 323.334 127.841C322.822 128.068 322.228 128.182 321.55 128.182C320.66 128.182 319.923 127.989 319.339 127.602C318.756 127.216 318.387 126.652 318.232 125.909L319.504 125.591C319.625 126.061 319.855 126.413 320.192 126.648C320.533 126.883 320.978 127 321.527 127C322.152 127 322.648 126.867 323.016 126.602C323.387 126.333 323.572 126.011 323.572 125.636C323.572 125.333 323.466 125.08 323.254 124.875C323.042 124.667 322.716 124.511 322.277 124.409L320.822 124.068C320.023 123.879 319.436 123.585 319.061 123.188C318.69 122.786 318.504 122.284 318.504 121.682C318.504 121.189 318.643 120.754 318.919 120.375C319.199 119.996 319.58 119.699 320.061 119.483C320.546 119.267 321.095 119.159 321.709 119.159C322.572 119.159 323.25 119.348 323.743 119.727C324.239 120.106 324.591 120.606 324.8 121.227ZM331.877 122.386V123.636H326.786V122.386H331.877ZM338.537 128V119.273H339.832V120.636H339.946C340.128 120.17 340.421 119.809 340.826 119.551C341.232 119.29 341.718 119.159 342.287 119.159C342.862 119.159 343.342 119.29 343.724 119.551C344.111 119.809 344.412 120.17 344.628 120.636H344.718C344.942 120.186 345.277 119.828 345.724 119.562C346.171 119.294 346.707 119.159 347.332 119.159C348.112 119.159 348.751 119.403 349.247 119.892C349.743 120.377 349.991 121.133 349.991 122.159V128H348.65V122.159C348.65 121.515 348.474 121.055 348.122 120.778C347.77 120.502 347.355 120.364 346.878 120.364C346.264 120.364 345.789 120.549 345.451 120.92C345.114 121.288 344.946 121.754 344.946 122.318V128H343.582V122.023C343.582 121.527 343.421 121.127 343.099 120.824C342.777 120.517 342.362 120.364 341.855 120.364C341.506 120.364 341.181 120.456 340.878 120.642C340.578 120.828 340.336 121.085 340.15 121.415C339.968 121.741 339.878 122.117 339.878 122.545V128H338.537ZM356.002 128.182C355.161 128.182 354.436 127.996 353.826 127.625C353.22 127.25 352.752 126.727 352.422 126.057C352.097 125.383 351.934 124.598 351.934 123.705C351.934 122.811 352.097 122.023 352.422 121.341C352.752 120.655 353.21 120.121 353.797 119.739C354.388 119.352 355.078 119.159 355.866 119.159C356.32 119.159 356.769 119.235 357.212 119.386C357.655 119.538 358.059 119.784 358.422 120.125C358.786 120.462 359.076 120.909 359.292 121.466C359.508 122.023 359.616 122.708 359.616 123.523V124.091H352.888V122.932H358.252C358.252 122.439 358.154 122 357.957 121.614C357.763 121.227 357.487 120.922 357.127 120.699C356.771 120.475 356.35 120.364 355.866 120.364C355.332 120.364 354.869 120.496 354.479 120.761C354.093 121.023 353.796 121.364 353.587 121.784C353.379 122.205 353.275 122.655 353.275 123.136V123.909C353.275 124.568 353.388 125.127 353.616 125.585C353.847 126.04 354.167 126.386 354.576 126.625C354.985 126.86 355.46 126.977 356.002 126.977C356.354 126.977 356.672 126.928 356.957 126.83C357.244 126.727 357.493 126.576 357.701 126.375C357.909 126.17 358.07 125.917 358.184 125.614L359.479 125.977C359.343 126.417 359.114 126.803 358.792 127.136C358.47 127.466 358.072 127.723 357.599 127.909C357.125 128.091 356.593 128.182 356.002 128.182ZM364.851 128.182C364.124 128.182 363.482 127.998 362.925 127.631C362.368 127.259 361.932 126.737 361.618 126.062C361.304 125.384 361.146 124.583 361.146 123.659C361.146 122.742 361.304 121.947 361.618 121.273C361.932 120.598 362.37 120.078 362.93 119.71C363.491 119.343 364.139 119.159 364.874 119.159C365.442 119.159 365.891 119.254 366.22 119.443C366.554 119.629 366.807 119.841 366.982 120.08C367.16 120.314 367.298 120.508 367.396 120.659H367.51V116.364H368.851V128H367.555V126.659H367.396C367.298 126.818 367.158 127.019 366.976 127.261C366.794 127.5 366.535 127.714 366.197 127.903C365.86 128.089 365.411 128.182 364.851 128.182ZM365.033 126.977C365.571 126.977 366.025 126.837 366.396 126.557C366.768 126.273 367.05 125.881 367.243 125.381C367.436 124.877 367.533 124.295 367.533 123.636C367.533 122.985 367.438 122.415 367.249 121.926C367.059 121.434 366.779 121.051 366.408 120.778C366.036 120.502 365.578 120.364 365.033 120.364C364.464 120.364 363.991 120.509 363.612 120.801C363.237 121.089 362.955 121.481 362.766 121.977C362.58 122.47 362.487 123.023 362.487 123.636C362.487 124.258 362.582 124.822 362.771 125.33C362.964 125.833 363.249 126.235 363.624 126.534C364.002 126.83 364.472 126.977 365.033 126.977ZM371.393 128V119.273H372.734V128H371.393ZM372.075 117.818C371.813 117.818 371.588 117.729 371.399 117.551C371.213 117.373 371.12 117.159 371.12 116.909C371.12 116.659 371.213 116.445 371.399 116.267C371.588 116.089 371.813 116 372.075 116C372.336 116 372.56 116.089 372.745 116.267C372.935 116.445 373.029 116.659 373.029 116.909C373.029 117.159 372.935 117.373 372.745 117.551C372.56 117.729 372.336 117.818 372.075 117.818ZM377.658 128.205C377.105 128.205 376.603 128.1 376.152 127.892C375.702 127.68 375.344 127.375 375.078 126.977C374.813 126.576 374.681 126.091 374.681 125.523C374.681 125.023 374.779 124.617 374.976 124.307C375.173 123.992 375.436 123.746 375.766 123.568C376.095 123.39 376.459 123.258 376.857 123.17C377.258 123.08 377.662 123.008 378.067 122.955C378.597 122.886 379.027 122.835 379.357 122.801C379.69 122.763 379.933 122.701 380.084 122.614C380.239 122.527 380.317 122.375 380.317 122.159V122.114C380.317 121.553 380.164 121.117 379.857 120.807C379.554 120.496 379.094 120.341 378.476 120.341C377.836 120.341 377.334 120.481 376.97 120.761C376.607 121.042 376.351 121.341 376.203 121.659L374.931 121.205C375.158 120.674 375.461 120.261 375.84 119.966C376.222 119.667 376.639 119.458 377.09 119.341C377.544 119.22 377.991 119.159 378.431 119.159C378.711 119.159 379.033 119.193 379.397 119.261C379.764 119.326 380.118 119.46 380.459 119.665C380.804 119.869 381.09 120.178 381.317 120.591C381.544 121.004 381.658 121.557 381.658 122.25V128H380.317V126.818H380.249C380.158 127.008 380.006 127.21 379.794 127.426C379.582 127.642 379.3 127.826 378.948 127.977C378.595 128.129 378.166 128.205 377.658 128.205ZM377.862 127C378.393 127 378.84 126.896 379.203 126.688C379.571 126.479 379.847 126.21 380.033 125.881C380.222 125.551 380.317 125.205 380.317 124.841V123.614C380.26 123.682 380.135 123.744 379.942 123.801C379.753 123.854 379.533 123.902 379.283 123.943C379.037 123.981 378.796 124.015 378.561 124.045C378.33 124.072 378.143 124.095 377.999 124.114C377.65 124.159 377.325 124.233 377.022 124.335C376.722 124.434 376.48 124.583 376.294 124.784C376.112 124.981 376.022 125.25 376.022 125.591C376.022 126.057 376.194 126.409 376.539 126.648C376.887 126.883 377.328 127 377.862 127ZM5.02273 143.273V144.409H0.5V143.273H5.02273ZM1.81818 141.182H3.15909V149.5C3.15909 149.879 3.21402 150.163 3.32386 150.352C3.4375 150.538 3.58144 150.663 3.75568 150.727C3.93371 150.788 4.12121 150.818 4.31818 150.818C4.46591 150.818 4.58712 150.811 4.68182 150.795C4.77652 150.777 4.85227 150.761 4.90909 150.75L5.18182 151.955C5.09091 151.989 4.96402 152.023 4.80114 152.057C4.63826 152.095 4.43182 152.114 4.18182 152.114C3.80303 152.114 3.43182 152.032 3.06818 151.869C2.70833 151.706 2.40909 151.458 2.17045 151.125C1.93561 150.792 1.81818 150.371 1.81818 149.864V141.182ZM8.46818 146.75V152H7.12727V140.364H8.46818V144.636H8.58182C8.78636 144.186 9.09318 143.828 9.50227 143.562C9.91515 143.294 10.4644 143.159 11.15 143.159C11.7447 143.159 12.2655 143.278 12.7125 143.517C13.1595 143.752 13.5061 144.114 13.7523 144.602C14.0023 145.087 14.1273 145.705 14.1273 146.455V152H12.7864V146.545C12.7864 145.852 12.6064 145.316 12.2466 144.938C11.8905 144.555 11.3962 144.364 10.7636 144.364C10.3242 144.364 9.9303 144.456 9.58182 144.642C9.23712 144.828 8.96439 145.098 8.76364 145.455C8.56667 145.811 8.46818 146.242 8.46818 146.75ZM16.4804 152V143.273H17.7759V144.591H17.8668C18.0259 144.159 18.3137 143.809 18.7304 143.54C19.1471 143.271 19.6168 143.136 20.1395 143.136C20.238 143.136 20.3611 143.138 20.5088 143.142C20.6565 143.146 20.7683 143.152 20.844 143.159V144.523C20.7986 144.511 20.6944 144.494 20.5315 144.472C20.3724 144.445 20.2039 144.432 20.0259 144.432C19.6016 144.432 19.2228 144.521 18.8895 144.699C18.5599 144.873 18.2986 145.116 18.1054 145.426C17.916 145.733 17.8213 146.083 17.8213 146.477V152H16.4804ZM25.6134 152.182C24.8255 152.182 24.1342 151.994 23.5395 151.619C22.9486 151.244 22.4865 150.72 22.1531 150.045C21.8236 149.371 21.6588 148.583 21.6588 147.682C21.6588 146.773 21.8236 145.979 22.1531 145.301C22.4865 144.623 22.9486 144.097 23.5395 143.722C24.1342 143.347 24.8255 143.159 25.6134 143.159C26.4012 143.159 27.0906 143.347 27.6815 143.722C28.2762 144.097 28.7384 144.623 29.0679 145.301C29.4012 145.979 29.5679 146.773 29.5679 147.682C29.5679 148.583 29.4012 149.371 29.0679 150.045C28.7384 150.72 28.2762 151.244 27.6815 151.619C27.0906 151.994 26.4012 152.182 25.6134 152.182ZM25.6134 150.977C26.2118 150.977 26.7043 150.824 27.0906 150.517C27.477 150.21 27.763 149.807 27.9486 149.307C28.1342 148.807 28.227 148.265 28.227 147.682C28.227 147.098 28.1342 146.555 27.9486 146.051C27.763 145.547 27.477 145.14 27.0906 144.83C26.7043 144.519 26.2118 144.364 25.6134 144.364C25.0149 144.364 24.5224 144.519 24.1361 144.83C23.7497 145.14 23.4637 145.547 23.2781 146.051C23.0925 146.555 22.9997 147.098 22.9997 147.682C22.9997 148.265 23.0925 148.807 23.2781 149.307C23.4637 149.807 23.7497 150.21 24.1361 150.517C24.5224 150.824 25.0149 150.977 25.6134 150.977ZM37.0148 148.432V143.273H38.3557V152H37.0148V150.523H36.9239C36.7193 150.966 36.4011 151.343 35.9693 151.653C35.5375 151.96 34.992 152.114 34.333 152.114C33.7875 152.114 33.3027 151.994 32.8784 151.756C32.4542 151.513 32.1208 151.15 31.8784 150.665C31.636 150.176 31.5148 149.561 31.5148 148.818V143.273H32.8557V148.727C32.8557 149.364 33.0337 149.871 33.3898 150.25C33.7496 150.629 34.208 150.818 34.7648 150.818C35.0981 150.818 35.4371 150.733 35.7818 150.562C36.1303 150.392 36.422 150.131 36.6568 149.778C36.8955 149.426 37.0148 148.977 37.0148 148.432ZM44.2344 155.455C43.5866 155.455 43.0298 155.371 42.5639 155.205C42.098 155.042 41.7098 154.826 41.3991 154.557C41.0923 154.292 40.848 154.008 40.6662 153.705L41.7344 152.955C41.8556 153.114 42.009 153.295 42.1946 153.5C42.3802 153.708 42.634 153.888 42.956 154.04C43.2817 154.195 43.7079 154.273 44.2344 154.273C44.9389 154.273 45.5204 154.102 45.9787 153.761C46.437 153.42 46.6662 152.886 46.6662 152.159V150.386H46.5526C46.4541 150.545 46.3139 150.742 46.1321 150.977C45.9541 151.208 45.6965 151.415 45.3594 151.597C45.026 151.775 44.5753 151.864 44.0071 151.864C43.3026 151.864 42.67 151.697 42.1094 151.364C41.5526 151.03 41.1113 150.545 40.7855 149.909C40.4635 149.273 40.3026 148.5 40.3026 147.591C40.3026 146.697 40.4598 145.919 40.7741 145.256C41.0885 144.589 41.526 144.074 42.0866 143.71C42.6473 143.343 43.295 143.159 44.0298 143.159C44.598 143.159 45.0488 143.254 45.3821 143.443C45.7192 143.629 45.9768 143.841 46.1548 144.08C46.3366 144.314 46.4768 144.508 46.5753 144.659H46.7116V143.273H48.0071V152.25C48.0071 153 47.8366 153.61 47.4957 154.08C47.1586 154.553 46.7041 154.9 46.1321 155.119C45.5639 155.343 44.9313 155.455 44.2344 155.455ZM44.1889 150.659C44.7268 150.659 45.1813 150.536 45.5526 150.29C45.9238 150.044 46.206 149.689 46.3991 149.227C46.5923 148.765 46.6889 148.212 46.6889 147.568C46.6889 146.939 46.5942 146.384 46.4048 145.903C46.2154 145.422 45.9351 145.045 45.5639 144.773C45.1927 144.5 44.7344 144.364 44.1889 144.364C43.6207 144.364 43.1473 144.508 42.7685 144.795C42.3935 145.083 42.1113 145.47 41.9219 145.955C41.7363 146.439 41.6435 146.977 41.6435 147.568C41.6435 148.174 41.7382 148.71 41.9276 149.176C42.1207 149.638 42.4048 150.002 42.7798 150.267C43.1586 150.528 43.6283 150.659 44.1889 150.659ZM51.7026 146.75V152H50.3616V140.364H51.7026V144.636H51.8162C52.0207 144.186 52.3276 143.828 52.7366 143.562C53.1495 143.294 53.6988 143.159 54.3844 143.159C54.9791 143.159 55.4999 143.278 55.9469 143.517C56.3938 143.752 56.7404 144.114 56.9866 144.602C57.2366 145.087 57.3616 145.705 57.3616 146.455V152H56.0207V146.545C56.0207 145.852 55.8408 145.316 55.481 144.938C55.1249 144.555 54.6306 144.364 53.998 144.364C53.5586 144.364 53.1647 144.456 52.8162 144.642C52.4715 144.828 52.1988 145.098 51.998 145.455C51.801 145.811 51.7026 146.242 51.7026 146.75ZM64.1148 155.273V143.273H65.4102V144.659H65.5693C65.6678 144.508 65.8042 144.314 65.9784 144.08C66.1564 143.841 66.4102 143.629 66.7398 143.443C67.0731 143.254 67.5239 143.159 68.092 143.159C68.8269 143.159 69.4746 143.343 70.0352 143.71C70.5958 144.078 71.0333 144.598 71.3477 145.273C71.6621 145.947 71.8193 146.742 71.8193 147.659C71.8193 148.583 71.6621 149.384 71.3477 150.062C71.0333 150.737 70.5977 151.259 70.0409 151.631C69.4841 151.998 68.842 152.182 68.1148 152.182C67.5542 152.182 67.1053 152.089 66.7682 151.903C66.4311 151.714 66.1716 151.5 65.9898 151.261C65.808 151.019 65.6678 150.818 65.5693 150.659H65.4557V155.273H64.1148ZM65.433 147.636C65.433 148.295 65.5295 148.877 65.7227 149.381C65.9159 149.881 66.1981 150.273 66.5693 150.557C66.9405 150.837 67.3951 150.977 67.933 150.977C68.4936 150.977 68.9614 150.83 69.3364 150.534C69.7152 150.235 69.9992 149.833 70.1886 149.33C70.3818 148.822 70.4784 148.258 70.4784 147.636C70.4784 147.023 70.3837 146.47 70.1943 145.977C70.0087 145.481 69.7265 145.089 69.3477 144.801C68.9727 144.509 68.5011 144.364 67.933 144.364C67.3875 144.364 66.9292 144.502 66.558 144.778C66.1867 145.051 65.9064 145.434 65.717 145.926C65.5277 146.415 65.433 146.985 65.433 147.636ZM77.3102 152.182C76.5223 152.182 75.8311 151.994 75.2364 151.619C74.6455 151.244 74.1833 150.72 73.85 150.045C73.5205 149.371 73.3557 148.583 73.3557 147.682C73.3557 146.773 73.5205 145.979 73.85 145.301C74.1833 144.623 74.6455 144.097 75.2364 143.722C75.8311 143.347 76.5223 143.159 77.3102 143.159C78.0981 143.159 78.7875 143.347 79.3784 143.722C79.9731 144.097 80.4352 144.623 80.7648 145.301C81.0981 145.979 81.2648 146.773 81.2648 147.682C81.2648 148.583 81.0981 149.371 80.7648 150.045C80.4352 150.72 79.9731 151.244 79.3784 151.619C78.7875 151.994 78.0981 152.182 77.3102 152.182ZM77.3102 150.977C77.9087 150.977 78.4011 150.824 78.7875 150.517C79.1739 150.21 79.4598 149.807 79.6455 149.307C79.8311 148.807 79.9239 148.265 79.9239 147.682C79.9239 147.098 79.8311 146.555 79.6455 146.051C79.4598 145.547 79.1739 145.14 78.7875 144.83C78.4011 144.519 77.9087 144.364 77.3102 144.364C76.7117 144.364 76.2193 144.519 75.833 144.83C75.4466 145.14 75.1606 145.547 74.975 146.051C74.7894 146.555 74.6966 147.098 74.6966 147.682C74.6966 148.265 74.7894 148.807 74.975 149.307C75.1606 149.807 75.4466 150.21 75.833 150.517C76.2193 150.824 76.7117 150.977 77.3102 150.977ZM87.0071 143.273V144.409H82.4844V143.273H87.0071ZM83.8026 141.182H85.1435V149.5C85.1435 149.879 85.1984 150.163 85.3082 150.352C85.4219 150.538 85.5658 150.663 85.7401 150.727C85.9181 150.788 86.1056 150.818 86.3026 150.818C86.4503 150.818 86.5715 150.811 86.6662 150.795C86.7609 150.777 86.8366 150.761 86.8935 150.75L87.1662 151.955C87.0753 151.989 86.9484 152.023 86.7855 152.057C86.6226 152.095 86.4162 152.114 86.1662 152.114C85.7874 152.114 85.4162 152.032 85.0526 151.869C84.6927 151.706 84.3935 151.458 84.1548 151.125C83.92 150.792 83.8026 150.371 83.8026 149.864V141.182ZM92.4895 152.182C91.6486 152.182 90.9232 151.996 90.3134 151.625C89.7073 151.25 89.2395 150.727 88.9099 150.057C88.5842 149.383 88.4213 148.598 88.4213 147.705C88.4213 146.811 88.5842 146.023 88.9099 145.341C89.2395 144.655 89.6978 144.121 90.2849 143.739C90.8759 143.352 91.5652 143.159 92.3531 143.159C92.8077 143.159 93.2565 143.235 93.6997 143.386C94.1429 143.538 94.5463 143.784 94.9099 144.125C95.2736 144.462 95.5634 144.909 95.7793 145.466C95.9952 146.023 96.1031 146.708 96.1031 147.523V148.091H89.3759V146.932H94.7395C94.7395 146.439 94.641 146 94.444 145.614C94.2509 145.227 93.9743 144.922 93.6145 144.699C93.2584 144.475 92.838 144.364 92.3531 144.364C91.819 144.364 91.3569 144.496 90.9668 144.761C90.5804 145.023 90.2831 145.364 90.0747 145.784C89.8664 146.205 89.7622 146.655 89.7622 147.136V147.909C89.7622 148.568 89.8759 149.127 90.1031 149.585C90.3342 150.04 90.6543 150.386 91.0634 150.625C91.4724 150.86 91.9478 150.977 92.4895 150.977C92.8418 150.977 93.1599 150.928 93.444 150.83C93.7319 150.727 93.98 150.576 94.1884 150.375C94.3967 150.17 94.5577 149.917 94.6713 149.614L95.9668 149.977C95.8304 150.417 95.6012 150.803 95.2793 151.136C94.9573 151.466 94.5596 151.723 94.0861 151.909C93.6126 152.091 93.0804 152.182 92.4895 152.182ZM99.3838 146.75V152H98.0429V143.273H99.3384V144.636H99.452C99.6565 144.193 99.9671 143.837 100.384 143.568C100.8 143.295 101.338 143.159 101.997 143.159C102.588 143.159 103.105 143.28 103.549 143.523C103.992 143.761 104.336 144.125 104.583 144.614C104.829 145.098 104.952 145.712 104.952 146.455V152H103.611V146.545C103.611 145.86 103.433 145.326 103.077 144.943C102.721 144.557 102.232 144.364 101.611 144.364C101.183 144.364 100.8 144.456 100.463 144.642C100.13 144.828 99.8668 145.098 99.6736 145.455C99.4804 145.811 99.3838 146.242 99.3838 146.75ZM111.098 143.273V144.409H106.575V143.273H111.098ZM107.893 141.182H109.234V149.5C109.234 149.879 109.289 150.163 109.399 150.352C109.512 150.538 109.656 150.663 109.831 150.727C110.009 150.788 110.196 150.818 110.393 150.818C110.541 150.818 110.662 150.811 110.757 150.795C110.852 150.777 110.927 150.761 110.984 150.75L111.257 151.955C111.166 151.989 111.039 152.023 110.876 152.057C110.713 152.095 110.507 152.114 110.257 152.114C109.878 152.114 109.507 152.032 109.143 151.869C108.783 151.706 108.484 151.458 108.245 151.125C108.011 150.792 107.893 150.371 107.893 149.864V141.182ZM113.015 152V143.273H114.356V152H113.015ZM113.697 141.818C113.435 141.818 113.21 141.729 113.02 141.551C112.835 141.373 112.742 141.159 112.742 140.909C112.742 140.659 112.835 140.445 113.02 140.267C113.21 140.089 113.435 140 113.697 140C113.958 140 114.181 140.089 114.367 140.267C114.556 140.445 114.651 140.659 114.651 140.909C114.651 141.159 114.556 141.373 114.367 141.551C114.181 141.729 113.958 141.818 113.697 141.818ZM119.28 152.205C118.727 152.205 118.225 152.1 117.774 151.892C117.323 151.68 116.965 151.375 116.7 150.977C116.435 150.576 116.303 150.091 116.303 149.523C116.303 149.023 116.401 148.617 116.598 148.307C116.795 147.992 117.058 147.746 117.388 147.568C117.717 147.39 118.081 147.258 118.479 147.17C118.88 147.08 119.284 147.008 119.689 146.955C120.219 146.886 120.649 146.835 120.979 146.801C121.312 146.763 121.554 146.701 121.706 146.614C121.861 146.527 121.939 146.375 121.939 146.159V146.114C121.939 145.553 121.786 145.117 121.479 144.807C121.176 144.496 120.715 144.341 120.098 144.341C119.458 144.341 118.956 144.481 118.592 144.761C118.229 145.042 117.973 145.341 117.825 145.659L116.553 145.205C116.78 144.674 117.083 144.261 117.462 143.966C117.844 143.667 118.261 143.458 118.712 143.341C119.166 143.22 119.613 143.159 120.053 143.159C120.333 143.159 120.655 143.193 121.018 143.261C121.386 143.326 121.74 143.46 122.081 143.665C122.426 143.869 122.712 144.178 122.939 144.591C123.166 145.004 123.28 145.557 123.28 146.25V152H121.939V150.818H121.871C121.78 151.008 121.628 151.21 121.416 151.426C121.204 151.642 120.922 151.826 120.57 151.977C120.217 152.129 119.787 152.205 119.28 152.205ZM119.484 151C120.015 151 120.462 150.896 120.825 150.688C121.193 150.479 121.469 150.21 121.655 149.881C121.844 149.551 121.939 149.205 121.939 148.841V147.614C121.882 147.682 121.757 147.744 121.564 147.801C121.375 147.854 121.155 147.902 120.905 147.943C120.659 147.981 120.418 148.015 120.183 148.045C119.952 148.072 119.765 148.095 119.621 148.114C119.272 148.159 118.946 148.233 118.643 148.335C118.344 148.434 118.102 148.583 117.916 148.784C117.734 148.981 117.643 149.25 117.643 149.591C117.643 150.057 117.816 150.409 118.161 150.648C118.509 150.883 118.95 151 119.484 151ZM126.968 140.364V152H125.627V140.364H126.968ZM129.324 152V143.273H130.665V152H129.324ZM130.006 141.818C129.745 141.818 129.519 141.729 129.33 141.551C129.144 141.373 129.051 141.159 129.051 140.909C129.051 140.659 129.144 140.445 129.33 140.267C129.519 140.089 129.745 140 130.006 140C130.267 140 130.491 140.089 130.676 140.267C130.866 140.445 130.961 140.659 130.961 140.909C130.961 141.159 130.866 141.373 130.676 141.551C130.491 141.729 130.267 141.818 130.006 141.818ZM136.816 143.273V144.409H132.294V143.273H136.816ZM133.612 141.182H134.953V149.5C134.953 149.879 135.008 150.163 135.118 150.352C135.231 150.538 135.375 150.663 135.549 150.727C135.727 150.788 135.915 150.818 136.112 150.818C136.26 150.818 136.381 150.811 136.476 150.795C136.57 150.777 136.646 150.761 136.703 150.75L136.976 151.955C136.885 151.989 136.758 152.023 136.595 152.057C136.432 152.095 136.226 152.114 135.976 152.114C135.597 152.114 135.226 152.032 134.862 151.869C134.502 151.706 134.203 151.458 133.964 151.125C133.729 150.792 133.612 150.371 133.612 149.864V141.182ZM138.734 152V143.273H140.074V152H138.734ZM139.415 141.818C139.154 141.818 138.929 141.729 138.739 141.551C138.554 141.373 138.461 141.159 138.461 140.909C138.461 140.659 138.554 140.445 138.739 140.267C138.929 140.089 139.154 140 139.415 140C139.677 140 139.9 140.089 140.086 140.267C140.275 140.445 140.37 140.659 140.37 140.909C140.37 141.159 140.275 141.373 140.086 141.551C139.9 141.729 139.677 141.818 139.415 141.818ZM146.089 152.182C145.249 152.182 144.523 151.996 143.913 151.625C143.307 151.25 142.839 150.727 142.51 150.057C142.184 149.383 142.021 148.598 142.021 147.705C142.021 146.811 142.184 146.023 142.51 145.341C142.839 144.655 143.298 144.121 143.885 143.739C144.476 143.352 145.165 143.159 145.953 143.159C146.408 143.159 146.857 143.235 147.3 143.386C147.743 143.538 148.146 143.784 148.51 144.125C148.874 144.462 149.163 144.909 149.379 145.466C149.595 146.023 149.703 146.708 149.703 147.523V148.091H142.976V146.932H148.339C148.339 146.439 148.241 146 148.044 145.614C147.851 145.227 147.574 144.922 147.214 144.699C146.858 144.475 146.438 144.364 145.953 144.364C145.419 144.364 144.957 144.496 144.567 144.761C144.18 145.023 143.883 145.364 143.675 145.784C143.466 146.205 143.362 146.655 143.362 147.136V147.909C143.362 148.568 143.476 149.127 143.703 149.585C143.934 150.04 144.254 150.386 144.663 150.625C145.072 150.86 145.548 150.977 146.089 150.977C146.442 150.977 146.76 150.928 147.044 150.83C147.332 150.727 147.58 150.576 147.788 150.375C147.997 150.17 148.158 149.917 148.271 149.614L149.567 149.977C149.43 150.417 149.201 150.803 148.879 151.136C148.557 151.466 148.16 151.723 147.686 151.909C147.213 152.091 146.68 152.182 146.089 152.182ZM157.825 145.227L156.62 145.568C156.544 145.367 156.433 145.172 156.285 144.983C156.141 144.79 155.944 144.631 155.694 144.506C155.444 144.381 155.124 144.318 154.734 144.318C154.2 144.318 153.755 144.441 153.399 144.688C153.046 144.93 152.87 145.239 152.87 145.614C152.87 145.947 152.991 146.21 153.234 146.403C153.476 146.597 153.855 146.758 154.37 146.886L155.666 147.205C156.446 147.394 157.027 147.684 157.41 148.074C157.793 148.46 157.984 148.958 157.984 149.568C157.984 150.068 157.84 150.515 157.552 150.909C157.268 151.303 156.87 151.614 156.359 151.841C155.847 152.068 155.253 152.182 154.575 152.182C153.685 152.182 152.948 151.989 152.364 151.602C151.781 151.216 151.412 150.652 151.257 149.909L152.529 149.591C152.65 150.061 152.88 150.413 153.217 150.648C153.558 150.883 154.003 151 154.552 151C155.177 151 155.673 150.867 156.041 150.602C156.412 150.333 156.597 150.011 156.597 149.636C156.597 149.333 156.491 149.08 156.279 148.875C156.067 148.667 155.741 148.511 155.302 148.409L153.847 148.068C153.048 147.879 152.461 147.585 152.086 147.188C151.715 146.786 151.529 146.284 151.529 145.682C151.529 145.189 151.668 144.754 151.944 144.375C152.224 143.996 152.605 143.699 153.086 143.483C153.571 143.267 154.12 143.159 154.734 143.159C155.597 143.159 156.275 143.348 156.768 143.727C157.264 144.106 157.616 144.606 157.825 145.227ZM160.88 152.091C160.599 152.091 160.359 151.991 160.158 151.79C159.957 151.589 159.857 151.348 159.857 151.068C159.857 150.788 159.957 150.547 160.158 150.347C160.359 150.146 160.599 150.045 160.88 150.045C161.16 150.045 161.4 150.146 161.601 150.347C161.802 150.547 161.902 150.788 161.902 151.068C161.902 151.254 161.855 151.424 161.76 151.58C161.669 151.735 161.546 151.86 161.391 151.955C161.239 152.045 161.069 152.091 160.88 152.091ZM168.79 152V140.364H170.199V145.545H176.404V140.364H177.813V152H176.404V146.795H170.199V152H168.79ZM183.898 152.182C183.11 152.182 182.419 151.994 181.824 151.619C181.233 151.244 180.771 150.72 180.438 150.045C180.108 149.371 179.943 148.583 179.943 147.682C179.943 146.773 180.108 145.979 180.438 145.301C180.771 144.623 181.233 144.097 181.824 143.722C182.419 143.347 183.11 143.159 183.898 143.159C184.686 143.159 185.375 143.347 185.966 143.722C186.561 144.097 187.023 144.623 187.352 145.301C187.686 145.979 187.852 146.773 187.852 147.682C187.852 148.583 187.686 149.371 187.352 150.045C187.023 150.72 186.561 151.244 185.966 151.619C185.375 151.994 184.686 152.182 183.898 152.182ZM183.898 150.977C184.496 150.977 184.989 150.824 185.375 150.517C185.761 150.21 186.047 149.807 186.233 149.307C186.419 148.807 186.511 148.265 186.511 147.682C186.511 147.098 186.419 146.555 186.233 146.051C186.047 145.547 185.761 145.14 185.375 144.83C184.989 144.519 184.496 144.364 183.898 144.364C183.299 144.364 182.807 144.519 182.42 144.83C182.034 145.14 181.748 145.547 181.562 146.051C181.377 146.555 181.284 147.098 181.284 147.682C181.284 148.265 181.377 148.807 181.562 149.307C181.748 149.807 182.034 150.21 182.42 150.517C182.807 150.824 183.299 150.977 183.898 150.977ZM191.14 140.364V152H189.799V140.364H191.14ZM193.496 152V143.273H194.837V152H193.496ZM194.178 141.818C193.916 141.818 193.691 141.729 193.502 141.551C193.316 141.373 193.223 141.159 193.223 140.909C193.223 140.659 193.316 140.445 193.502 140.267C193.691 140.089 193.916 140 194.178 140C194.439 140 194.663 140.089 194.848 140.267C195.038 140.445 195.132 140.659 195.132 140.909C195.132 141.159 195.038 141.373 194.848 141.551C194.663 141.729 194.439 141.818 194.178 141.818ZM203.375 145.227L202.17 145.568C202.094 145.367 201.983 145.172 201.835 144.983C201.691 144.79 201.494 144.631 201.244 144.506C200.994 144.381 200.674 144.318 200.284 144.318C199.75 144.318 199.305 144.441 198.949 144.688C198.596 144.93 198.42 145.239 198.42 145.614C198.42 145.947 198.541 146.21 198.784 146.403C199.026 146.597 199.405 146.758 199.92 146.886L201.216 147.205C201.996 147.394 202.577 147.684 202.96 148.074C203.343 148.46 203.534 148.958 203.534 149.568C203.534 150.068 203.39 150.515 203.102 150.909C202.818 151.303 202.42 151.614 201.909 151.841C201.397 152.068 200.803 152.182 200.125 152.182C199.235 152.182 198.498 151.989 197.914 151.602C197.331 151.216 196.962 150.652 196.807 149.909L198.079 149.591C198.2 150.061 198.43 150.413 198.767 150.648C199.108 150.883 199.553 151 200.102 151C200.727 151 201.223 150.867 201.591 150.602C201.962 150.333 202.147 150.011 202.147 149.636C202.147 149.333 202.041 149.08 201.829 148.875C201.617 148.667 201.291 148.511 200.852 148.409L199.397 148.068C198.598 147.879 198.011 147.585 197.636 147.188C197.265 146.786 197.079 146.284 197.079 145.682C197.079 145.189 197.218 144.754 197.494 144.375C197.774 143.996 198.155 143.699 198.636 143.483C199.121 143.267 199.67 143.159 200.284 143.159C201.147 143.159 201.825 143.348 202.318 143.727C202.814 144.106 203.166 144.606 203.375 145.227ZM209.248 143.273V144.409H204.725V143.273H209.248ZM206.043 141.182H207.384V149.5C207.384 149.879 207.439 150.163 207.549 150.352C207.663 150.538 207.806 150.663 207.981 150.727C208.159 150.788 208.346 150.818 208.543 150.818C208.691 150.818 208.812 150.811 208.907 150.795C209.002 150.777 209.077 150.761 209.134 150.75L209.407 151.955C209.316 151.989 209.189 152.023 209.026 152.057C208.863 152.095 208.657 152.114 208.407 152.114C208.028 152.114 207.657 152.032 207.293 151.869C206.933 151.706 206.634 151.458 206.395 151.125C206.161 150.792 206.043 150.371 206.043 149.864V141.182ZM211.165 152V143.273H212.506V152H211.165ZM211.847 141.818C211.585 141.818 211.36 141.729 211.17 141.551C210.985 141.373 210.892 141.159 210.892 140.909C210.892 140.659 210.985 140.445 211.17 140.267C211.36 140.089 211.585 140 211.847 140C212.108 140 212.331 140.089 212.517 140.267C212.706 140.445 212.801 140.659 212.801 140.909C212.801 141.159 212.706 141.373 212.517 141.551C212.331 141.729 212.108 141.818 211.847 141.818ZM218.407 152.182C217.589 152.182 216.884 151.989 216.293 151.602C215.703 151.216 215.248 150.684 214.93 150.006C214.612 149.328 214.453 148.553 214.453 147.682C214.453 146.795 214.615 146.013 214.941 145.335C215.271 144.653 215.729 144.121 216.316 143.739C216.907 143.352 217.596 143.159 218.384 143.159C218.998 143.159 219.551 143.273 220.043 143.5C220.536 143.727 220.939 144.045 221.254 144.455C221.568 144.864 221.763 145.341 221.839 145.886H220.498C220.396 145.489 220.168 145.136 219.816 144.83C219.468 144.519 218.998 144.364 218.407 144.364C217.884 144.364 217.426 144.5 217.032 144.773C216.642 145.042 216.337 145.422 216.117 145.915C215.901 146.403 215.793 146.977 215.793 147.636C215.793 148.311 215.9 148.898 216.112 149.398C216.328 149.898 216.631 150.286 217.021 150.562C217.415 150.839 217.877 150.977 218.407 150.977C218.756 150.977 219.072 150.917 219.356 150.795C219.64 150.674 219.881 150.5 220.078 150.273C220.275 150.045 220.415 149.773 220.498 149.455H221.839C221.763 149.97 221.576 150.434 221.276 150.847C220.981 151.256 220.589 151.581 220.1 151.824C219.615 152.062 219.051 152.182 218.407 152.182ZM226.267 152.205C225.714 152.205 225.212 152.1 224.762 151.892C224.311 151.68 223.953 151.375 223.688 150.977C223.423 150.576 223.29 150.091 223.29 149.523C223.29 149.023 223.389 148.617 223.586 148.307C223.782 147.992 224.046 147.746 224.375 147.568C224.705 147.39 225.068 147.258 225.466 147.17C225.868 147.08 226.271 147.008 226.676 146.955C227.207 146.886 227.637 146.835 227.966 146.801C228.3 146.763 228.542 146.701 228.693 146.614C228.849 146.527 228.926 146.375 228.926 146.159V146.114C228.926 145.553 228.773 145.117 228.466 144.807C228.163 144.496 227.703 144.341 227.086 144.341C226.445 144.341 225.943 144.481 225.58 144.761C225.216 145.042 224.961 145.341 224.813 145.659L223.54 145.205C223.767 144.674 224.07 144.261 224.449 143.966C224.832 143.667 225.248 143.458 225.699 143.341C226.154 143.22 226.601 143.159 227.04 143.159C227.32 143.159 227.642 143.193 228.006 143.261C228.373 143.326 228.728 143.46 229.068 143.665C229.413 143.869 229.699 144.178 229.926 144.591C230.154 145.004 230.267 145.557 230.267 146.25V152H228.926V150.818H228.858C228.767 151.008 228.616 151.21 228.404 151.426C228.192 151.642 227.909 151.826 227.557 151.977C227.205 152.129 226.775 152.205 226.267 152.205ZM226.472 151C227.002 151 227.449 150.896 227.813 150.688C228.18 150.479 228.457 150.21 228.642 149.881C228.832 149.551 228.926 149.205 228.926 148.841V147.614C228.87 147.682 228.745 147.744 228.551 147.801C228.362 147.854 228.142 147.902 227.892 147.943C227.646 147.981 227.406 148.015 227.171 148.045C226.94 148.072 226.752 148.095 226.608 148.114C226.26 148.159 225.934 148.233 225.631 148.335C225.332 148.434 225.089 148.583 224.904 148.784C224.722 148.981 224.631 149.25 224.631 149.591C224.631 150.057 224.803 150.409 225.148 150.648C225.496 150.883 225.938 151 226.472 151ZM233.956 140.364V152H232.615V140.364H233.956ZM237.653 140.364V152H236.312V140.364H237.653ZM240.872 155.273C240.645 155.273 240.442 155.254 240.264 155.216C240.086 155.182 239.963 155.148 239.895 155.114L240.236 153.932C240.562 154.015 240.849 154.045 241.099 154.023C241.349 154 241.571 153.888 241.764 153.688C241.961 153.491 242.141 153.17 242.304 152.727L242.554 152.045L239.327 143.273H240.781L243.19 150.227H243.281L245.69 143.273H247.145L243.44 153.273C243.274 153.723 243.067 154.097 242.821 154.392C242.575 154.691 242.289 154.913 241.963 155.057C241.641 155.201 241.277 155.273 240.872 155.273ZM259.169 155.273V150.659H259.056C258.957 150.818 258.817 151.019 258.635 151.261C258.453 151.5 258.194 151.714 257.857 151.903C257.52 152.089 257.071 152.182 256.51 152.182C255.783 152.182 255.141 151.998 254.584 151.631C254.027 151.259 253.592 150.737 253.277 150.062C252.963 149.384 252.806 148.583 252.806 147.659C252.806 146.742 252.963 145.947 253.277 145.273C253.592 144.598 254.029 144.078 254.59 143.71C255.15 143.343 255.798 143.159 256.533 143.159C257.101 143.159 257.55 143.254 257.88 143.443C258.213 143.629 258.467 143.841 258.641 144.08C258.819 144.314 258.957 144.508 259.056 144.659H259.215V143.273H260.51V155.273H259.169ZM256.692 150.977C257.23 150.977 257.684 150.837 258.056 150.557C258.427 150.273 258.709 149.881 258.902 149.381C259.095 148.877 259.192 148.295 259.192 147.636C259.192 146.985 259.097 146.415 258.908 145.926C258.719 145.434 258.438 145.051 258.067 144.778C257.696 144.502 257.238 144.364 256.692 144.364C256.124 144.364 255.65 144.509 255.272 144.801C254.897 145.089 254.614 145.481 254.425 145.977C254.239 146.47 254.147 147.023 254.147 147.636C254.147 148.258 254.241 148.822 254.431 149.33C254.624 149.833 254.908 150.235 255.283 150.534C255.662 150.83 256.131 150.977 256.692 150.977ZM268.365 148.432V143.273H269.706V152H268.365V150.523H268.274C268.069 150.966 267.751 151.343 267.319 151.653C266.888 151.96 266.342 152.114 265.683 152.114C265.138 152.114 264.653 151.994 264.228 151.756C263.804 151.513 263.471 151.15 263.228 150.665C262.986 150.176 262.865 149.561 262.865 148.818V143.273H264.206V148.727C264.206 149.364 264.384 149.871 264.74 150.25C265.1 150.629 265.558 150.818 266.115 150.818C266.448 150.818 266.787 150.733 267.132 150.562C267.48 150.392 267.772 150.131 268.007 149.778C268.245 149.426 268.365 148.977 268.365 148.432ZM272.062 152V143.273H273.403V152H272.062ZM272.743 141.818C272.482 141.818 272.257 141.729 272.067 141.551C271.882 141.373 271.789 141.159 271.789 140.909C271.789 140.659 271.882 140.445 272.067 140.267C272.257 140.089 272.482 140 272.743 140C273.005 140 273.228 140.089 273.414 140.267C273.603 140.445 273.698 140.659 273.698 140.909C273.698 141.159 273.603 141.373 273.414 141.551C273.228 141.729 273.005 141.818 272.743 141.818ZM279.304 152.182C278.486 152.182 277.781 151.989 277.19 151.602C276.599 151.216 276.145 150.684 275.827 150.006C275.509 149.328 275.349 148.553 275.349 147.682C275.349 146.795 275.512 146.013 275.838 145.335C276.168 144.653 276.626 144.121 277.213 143.739C277.804 143.352 278.493 143.159 279.281 143.159C279.895 143.159 280.448 143.273 280.94 143.5C281.433 143.727 281.836 144.045 282.151 144.455C282.465 144.864 282.66 145.341 282.736 145.886H281.395C281.293 145.489 281.065 145.136 280.713 144.83C280.365 144.519 279.895 144.364 279.304 144.364C278.781 144.364 278.323 144.5 277.929 144.773C277.539 145.042 277.234 145.422 277.014 145.915C276.798 146.403 276.69 146.977 276.69 147.636C276.69 148.311 276.796 148.898 277.009 149.398C277.224 149.898 277.527 150.286 277.918 150.562C278.312 150.839 278.774 150.977 279.304 150.977C279.652 150.977 279.969 150.917 280.253 150.795C280.537 150.674 280.777 150.5 280.974 150.273C281.171 150.045 281.312 149.773 281.395 149.455H282.736C282.66 149.97 282.473 150.434 282.173 150.847C281.878 151.256 281.486 151.581 280.997 151.824C280.512 152.062 279.948 152.182 279.304 152.182ZM285.846 148.818L285.823 147.159H286.096L289.914 143.273H291.573L287.505 147.386H287.391L285.846 148.818ZM284.596 152V140.364H285.937V152H284.596ZM290.141 152L286.732 147.682L287.687 146.75L291.846 152H290.141ZM294.54 140.364V152H293.199V140.364H294.54ZM297.76 155.273C297.532 155.273 297.33 155.254 297.152 155.216C296.974 155.182 296.851 155.148 296.782 155.114L297.123 153.932C297.449 154.015 297.737 154.045 297.987 154.023C298.237 154 298.459 153.888 298.652 153.688C298.849 153.491 299.029 153.17 299.191 152.727L299.441 152.045L296.214 143.273H297.669L300.078 150.227H300.169L302.578 143.273H304.032L300.328 153.273C300.161 153.723 299.955 154.097 299.709 154.392C299.462 154.691 299.176 154.913 298.851 155.057C298.529 155.201 298.165 155.273 297.76 155.273ZM310.102 152V143.273H311.443V152H310.102ZM310.784 141.818C310.523 141.818 310.297 141.729 310.108 141.551C309.922 141.373 309.83 141.159 309.83 140.909C309.83 140.659 309.922 140.445 310.108 140.267C310.297 140.089 310.523 140 310.784 140C311.045 140 311.269 140.089 311.455 140.267C311.644 140.445 311.739 140.659 311.739 140.909C311.739 141.159 311.644 141.373 311.455 141.551C311.269 141.729 311.045 141.818 310.784 141.818ZM315.14 146.75V152H313.799V143.273H315.095V144.636H315.208C315.413 144.193 315.723 143.837 316.14 143.568C316.557 143.295 317.095 143.159 317.754 143.159C318.345 143.159 318.862 143.28 319.305 143.523C319.748 143.761 320.093 144.125 320.339 144.614C320.585 145.098 320.708 145.712 320.708 146.455V152H319.367V146.545C319.367 145.86 319.189 145.326 318.833 144.943C318.477 144.557 317.989 144.364 317.367 144.364C316.939 144.364 316.557 144.456 316.22 144.642C315.886 144.828 315.623 145.098 315.43 145.455C315.237 145.811 315.14 146.242 315.14 146.75ZM329.24 145.227L328.036 145.568C327.96 145.367 327.848 145.172 327.701 144.983C327.557 144.79 327.36 144.631 327.11 144.506C326.86 144.381 326.54 144.318 326.149 144.318C325.615 144.318 325.17 144.441 324.814 144.688C324.462 144.93 324.286 145.239 324.286 145.614C324.286 145.947 324.407 146.21 324.649 146.403C324.892 146.597 325.271 146.758 325.786 146.886L327.081 147.205C327.862 147.394 328.443 147.684 328.826 148.074C329.208 148.46 329.399 148.958 329.399 149.568C329.399 150.068 329.255 150.515 328.968 150.909C328.684 151.303 328.286 151.614 327.774 151.841C327.263 152.068 326.668 152.182 325.99 152.182C325.1 152.182 324.363 151.989 323.78 151.602C323.197 151.216 322.827 150.652 322.672 149.909L323.945 149.591C324.066 150.061 324.295 150.413 324.632 150.648C324.973 150.883 325.418 151 325.968 151C326.593 151 327.089 150.867 327.456 150.602C327.827 150.333 328.013 150.011 328.013 149.636C328.013 149.333 327.907 149.08 327.695 148.875C327.483 148.667 327.157 148.511 326.718 148.409L325.263 148.068C324.464 147.879 323.877 147.585 323.502 147.188C323.13 146.786 322.945 146.284 322.945 145.682C322.945 145.189 323.083 144.754 323.36 144.375C323.64 143.996 324.021 143.699 324.502 143.483C324.987 143.267 325.536 143.159 326.149 143.159C327.013 143.159 327.691 143.348 328.184 143.727C328.68 144.106 329.032 144.606 329.24 145.227ZM335.113 143.273V144.409H330.591V143.273H335.113ZM331.909 141.182H333.25V149.5C333.25 149.879 333.305 150.163 333.415 150.352C333.528 150.538 333.672 150.663 333.846 150.727C334.024 150.788 334.212 150.818 334.409 150.818C334.557 150.818 334.678 150.811 334.772 150.795C334.867 150.777 334.943 150.761 335 150.75L335.272 151.955C335.182 151.989 335.055 152.023 334.892 152.057C334.729 152.095 334.522 152.114 334.272 152.114C333.894 152.114 333.522 152.032 333.159 151.869C332.799 151.706 332.5 151.458 332.261 151.125C332.026 150.792 331.909 150.371 331.909 149.864V141.182ZM339.599 152.205C339.046 152.205 338.544 152.1 338.093 151.892C337.642 151.68 337.284 151.375 337.019 150.977C336.754 150.576 336.621 150.091 336.621 149.523C336.621 149.023 336.72 148.617 336.917 148.307C337.114 147.992 337.377 147.746 337.707 147.568C338.036 147.39 338.4 147.258 338.797 147.17C339.199 147.08 339.602 147.008 340.008 146.955C340.538 146.886 340.968 146.835 341.297 146.801C341.631 146.763 341.873 146.701 342.025 146.614C342.18 146.527 342.258 146.375 342.258 146.159V146.114C342.258 145.553 342.104 145.117 341.797 144.807C341.494 144.496 341.034 144.341 340.417 144.341C339.777 144.341 339.275 144.481 338.911 144.761C338.547 145.042 338.292 145.341 338.144 145.659L336.871 145.205C337.099 144.674 337.402 144.261 337.78 143.966C338.163 143.667 338.58 143.458 339.03 143.341C339.485 143.22 339.932 143.159 340.371 143.159C340.652 143.159 340.974 143.193 341.337 143.261C341.705 143.326 342.059 143.46 342.4 143.665C342.744 143.869 343.03 144.178 343.258 144.591C343.485 145.004 343.599 145.557 343.599 146.25V152H342.258V150.818H342.189C342.099 151.008 341.947 151.21 341.735 151.426C341.523 151.642 341.241 151.826 340.888 151.977C340.536 152.129 340.106 152.205 339.599 152.205ZM339.803 151C340.333 151 340.78 150.896 341.144 150.688C341.511 150.479 341.788 150.21 341.974 149.881C342.163 149.551 342.258 149.205 342.258 148.841V147.614C342.201 147.682 342.076 147.744 341.883 147.801C341.693 147.854 341.474 147.902 341.224 147.943C340.977 147.981 340.737 148.015 340.502 148.045C340.271 148.072 340.083 148.095 339.939 148.114C339.591 148.159 339.265 148.233 338.962 148.335C338.663 148.434 338.421 148.583 338.235 148.784C338.053 148.981 337.962 149.25 337.962 149.591C337.962 150.057 338.135 150.409 338.479 150.648C338.828 150.883 339.269 151 339.803 151ZM347.287 140.364V152H345.946V140.364H347.287ZM350.984 140.364V152H349.643V140.364H350.984ZM356.999 152.182C356.158 152.182 355.433 151.996 354.823 151.625C354.217 151.25 353.749 150.727 353.419 150.057C353.094 149.383 352.931 148.598 352.931 147.705C352.931 146.811 353.094 146.023 353.419 145.341C353.749 144.655 354.207 144.121 354.794 143.739C355.385 143.352 356.075 143.159 356.862 143.159C357.317 143.159 357.766 143.235 358.209 143.386C358.652 143.538 359.056 143.784 359.419 144.125C359.783 144.462 360.073 144.909 360.289 145.466C360.505 146.023 360.612 146.708 360.612 147.523V148.091H353.885V146.932H359.249C359.249 146.439 359.15 146 358.953 145.614C358.76 145.227 358.484 144.922 358.124 144.699C357.768 144.475 357.347 144.364 356.862 144.364C356.328 144.364 355.866 144.496 355.476 144.761C355.09 145.023 354.792 145.364 354.584 145.784C354.376 146.205 354.272 146.655 354.272 147.136V147.909C354.272 148.568 354.385 149.127 354.612 149.585C354.844 150.04 355.164 150.386 355.573 150.625C355.982 150.86 356.457 150.977 356.999 150.977C357.351 150.977 357.669 150.928 357.953 150.83C358.241 150.727 358.489 150.576 358.698 150.375C358.906 150.17 359.067 149.917 359.181 149.614L360.476 149.977C360.34 150.417 360.111 150.803 359.789 151.136C359.467 151.466 359.069 151.723 358.595 151.909C358.122 152.091 357.59 152.182 356.999 152.182ZM365.848 152.182C365.12 152.182 364.478 151.998 363.922 151.631C363.365 151.259 362.929 150.737 362.615 150.062C362.3 149.384 362.143 148.583 362.143 147.659C362.143 146.742 362.3 145.947 362.615 145.273C362.929 144.598 363.367 144.078 363.927 143.71C364.488 143.343 365.136 143.159 365.87 143.159C366.439 143.159 366.888 143.254 367.217 143.443C367.55 143.629 367.804 143.841 367.978 144.08C368.156 144.314 368.295 144.508 368.393 144.659H368.507V140.364H369.848V152H368.552V150.659H368.393C368.295 150.818 368.155 151.019 367.973 151.261C367.791 151.5 367.531 151.714 367.194 151.903C366.857 152.089 366.408 152.182 365.848 152.182ZM366.03 150.977C366.567 150.977 367.022 150.837 367.393 150.557C367.764 150.273 368.047 149.881 368.24 149.381C368.433 148.877 368.53 148.295 368.53 147.636C368.53 146.985 368.435 146.415 368.245 145.926C368.056 145.434 367.776 145.051 367.405 144.778C367.033 144.502 366.575 144.364 366.03 144.364C365.461 144.364 364.988 144.509 364.609 144.801C364.234 145.089 363.952 145.481 363.763 145.977C363.577 146.47 363.484 147.023 363.484 147.636C363.484 148.258 363.579 148.822 363.768 149.33C363.961 149.833 364.245 150.235 364.62 150.534C364.999 150.83 365.469 150.977 366.03 150.977ZM1.22727 179.273V167.273H2.52273V168.659H2.68182C2.7803 168.508 2.91667 168.314 3.09091 168.08C3.26894 167.841 3.52273 167.629 3.85227 167.443C4.18561 167.254 4.63636 167.159 5.20455 167.159C5.93939 167.159 6.58712 167.343 7.14773 167.71C7.70833 168.078 8.14583 168.598 8.46023 169.273C8.77462 169.947 8.93182 170.742 8.93182 171.659C8.93182 172.583 8.77462 173.384 8.46023 174.062C8.14583 174.737 7.71023 175.259 7.15341 175.631C6.59659 175.998 5.95455 176.182 5.22727 176.182C4.66667 176.182 4.2178 176.089 3.88068 175.903C3.54356 175.714 3.28409 175.5 3.10227 175.261C2.92045 175.019 2.7803 174.818 2.68182 174.659H2.56818V179.273H1.22727ZM2.54545 171.636C2.54545 172.295 2.64205 172.877 2.83523 173.381C3.02841 173.881 3.31061 174.273 3.68182 174.557C4.05303 174.837 4.50758 174.977 5.04545 174.977C5.60606 174.977 6.07386 174.83 6.44886 174.534C6.82765 174.235 7.11174 173.833 7.30114 173.33C7.49432 172.822 7.59091 172.258 7.59091 171.636C7.59091 171.023 7.49621 170.47 7.30682 169.977C7.12121 169.481 6.83902 169.089 6.46023 168.801C6.08523 168.509 5.61364 168.364 5.04545 168.364C4.5 168.364 4.04167 168.502 3.67045 168.778C3.29924 169.051 3.01894 169.434 2.82955 169.926C2.64015 170.415 2.54545 170.985 2.54545 171.636ZM14.4227 176.182C13.6348 176.182 12.9436 175.994 12.3489 175.619C11.758 175.244 11.2958 174.72 10.9625 174.045C10.633 173.371 10.4682 172.583 10.4682 171.682C10.4682 170.773 10.633 169.979 10.9625 169.301C11.2958 168.623 11.758 168.097 12.3489 167.722C12.9436 167.347 13.6348 167.159 14.4227 167.159C15.2106 167.159 15.9 167.347 16.4909 167.722C17.0856 168.097 17.5477 168.623 17.8773 169.301C18.2106 169.979 18.3773 170.773 18.3773 171.682C18.3773 172.583 18.2106 173.371 17.8773 174.045C17.5477 174.72 17.0856 175.244 16.4909 175.619C15.9 175.994 15.2106 176.182 14.4227 176.182ZM14.4227 174.977C15.0212 174.977 15.5136 174.824 15.9 174.517C16.2864 174.21 16.5723 173.807 16.758 173.307C16.9436 172.807 17.0364 172.265 17.0364 171.682C17.0364 171.098 16.9436 170.555 16.758 170.051C16.5723 169.547 16.2864 169.14 15.9 168.83C15.5136 168.519 15.0212 168.364 14.4227 168.364C13.8242 168.364 13.3318 168.519 12.9455 168.83C12.5591 169.14 12.2731 169.547 12.0875 170.051C11.9019 170.555 11.8091 171.098 11.8091 171.682C11.8091 172.265 11.9019 172.807 12.0875 173.307C12.2731 173.807 12.5591 174.21 12.9455 174.517C13.3318 174.824 13.8242 174.977 14.4227 174.977ZM20.3241 176V167.273H21.6196V168.591H21.7105C21.8696 168.159 22.1575 167.809 22.5741 167.54C22.9908 167.271 23.4605 167.136 23.9832 167.136C24.0817 167.136 24.2048 167.138 24.3526 167.142C24.5003 167.146 24.612 167.152 24.6878 167.159V168.523C24.6423 168.511 24.5382 168.494 24.3753 168.472C24.2162 168.445 24.0476 168.432 23.8696 168.432C23.4454 168.432 23.0666 168.521 22.7332 168.699C22.4037 168.873 22.1423 169.116 21.9491 169.426C21.7598 169.733 21.6651 170.083 21.6651 170.477V176H20.3241ZM30.5196 167.273V168.409H25.9969V167.273H30.5196ZM27.3151 165.182H28.656V173.5C28.656 173.879 28.7109 174.163 28.8207 174.352C28.9344 174.538 29.0783 174.663 29.2526 174.727C29.4306 174.788 29.6181 174.818 29.8151 174.818C29.9628 174.818 30.084 174.811 30.1787 174.795C30.2734 174.777 30.3491 174.761 30.406 174.75L30.6787 175.955C30.5878 175.989 30.4609 176.023 30.298 176.057C30.1351 176.095 29.9287 176.114 29.6787 176.114C29.2999 176.114 28.9287 176.032 28.5651 175.869C28.2052 175.706 27.906 175.458 27.6673 175.125C27.4325 174.792 27.3151 174.371 27.3151 173.864V165.182ZM35.0048 176.205C34.4518 176.205 33.9499 176.1 33.4991 175.892C33.0484 175.68 32.6904 175.375 32.4253 174.977C32.1601 174.576 32.0276 174.091 32.0276 173.523C32.0276 173.023 32.126 172.617 32.323 172.307C32.52 171.992 32.7832 171.746 33.1128 171.568C33.4423 171.39 33.806 171.258 34.2037 171.17C34.6052 171.08 35.0086 171.008 35.4139 170.955C35.9442 170.886 36.3741 170.835 36.7037 170.801C37.037 170.763 37.2795 170.701 37.431 170.614C37.5863 170.527 37.6639 170.375 37.6639 170.159V170.114C37.6639 169.553 37.5105 169.117 37.2037 168.807C36.9007 168.496 36.4404 168.341 35.823 168.341C35.1829 168.341 34.681 168.481 34.3173 168.761C33.9537 169.042 33.698 169.341 33.5503 169.659L32.2776 169.205C32.5048 168.674 32.8079 168.261 33.1866 167.966C33.5692 167.667 33.9859 167.458 34.4366 167.341C34.8912 167.22 35.3382 167.159 35.7776 167.159C36.0579 167.159 36.3798 167.193 36.7435 167.261C37.1109 167.326 37.4651 167.46 37.806 167.665C38.1507 167.869 38.4366 168.178 38.6639 168.591C38.8912 169.004 39.0048 169.557 39.0048 170.25V176H37.6639V174.818H37.5957C37.5048 175.008 37.3533 175.21 37.1412 175.426C36.9291 175.642 36.6469 175.826 36.2946 175.977C35.9423 176.129 35.5124 176.205 35.0048 176.205ZM35.2094 175C35.7397 175 36.1866 174.896 36.5503 174.688C36.9177 174.479 37.1942 174.21 37.3798 173.881C37.5692 173.551 37.6639 173.205 37.6639 172.841V171.614C37.6071 171.682 37.4821 171.744 37.2889 171.801C37.0995 171.854 36.8798 171.902 36.6298 171.943C36.3836 171.981 36.1431 172.015 35.9082 172.045C35.6772 172.072 35.4897 172.095 35.3457 172.114C34.9973 172.159 34.6715 172.233 34.3685 172.335C34.0692 172.434 33.8268 172.583 33.6412 172.784C33.4594 172.981 33.3685 173.25 33.3685 173.591C33.3685 174.057 33.5408 174.409 33.8855 174.648C34.234 174.883 34.6753 175 35.2094 175ZM42.6932 164.364V176H41.3523V164.364H42.6932ZM51.231 169.227L50.0264 169.568C49.9507 169.367 49.8389 169.172 49.6912 168.983C49.5473 168.79 49.3503 168.631 49.1003 168.506C48.8503 168.381 48.5302 168.318 48.1401 168.318C47.606 168.318 47.1609 168.441 46.8048 168.688C46.4526 168.93 46.2764 169.239 46.2764 169.614C46.2764 169.947 46.3976 170.21 46.6401 170.403C46.8825 170.597 47.2613 170.758 47.7764 170.886L49.0719 171.205C49.8522 171.394 50.4336 171.684 50.8162 172.074C51.1988 172.46 51.3901 172.958 51.3901 173.568C51.3901 174.068 51.2461 174.515 50.9582 174.909C50.6741 175.303 50.2764 175.614 49.7651 175.841C49.2537 176.068 48.659 176.182 47.981 176.182C47.0908 176.182 46.3541 175.989 45.7707 175.602C45.1874 175.216 44.8181 174.652 44.6628 173.909L45.9355 173.591C46.0567 174.061 46.2859 174.413 46.623 174.648C46.9639 174.883 47.409 175 47.9582 175C48.5832 175 49.0795 174.867 49.4469 174.602C49.8181 174.333 50.0037 174.011 50.0037 173.636C50.0037 173.333 49.8976 173.08 49.6855 172.875C49.4734 172.667 49.1476 172.511 48.7082 172.409L47.2537 172.068C46.4545 171.879 45.8673 171.585 45.4923 171.188C45.1211 170.786 44.9355 170.284 44.9355 169.682C44.9355 169.189 45.0738 168.754 45.3503 168.375C45.6306 167.996 46.0113 167.699 46.4923 167.483C46.9772 167.267 47.5264 167.159 48.1401 167.159C49.0037 167.159 49.6817 167.348 50.1741 167.727C50.6704 168.106 51.0226 168.606 51.231 169.227ZM54.2858 176.091C54.0055 176.091 53.765 175.991 53.5642 175.79C53.3634 175.589 53.2631 175.348 53.2631 175.068C53.2631 174.788 53.3634 174.547 53.5642 174.347C53.765 174.146 54.0055 174.045 54.2858 174.045C54.5661 174.045 54.8066 174.146 55.0074 174.347C55.2081 174.547 55.3085 174.788 55.3085 175.068C55.3085 175.254 55.2612 175.424 55.1665 175.58C55.0756 175.735 54.9525 175.86 54.7972 175.955C54.6456 176.045 54.4752 176.091 54.2858 176.091Z" fill="#5F6D7E"/>
</svg>
