<svg width="20" height="20" viewBox="0 0 20 20" fill="none" xmlns="http://www.w3.org/2000/svg">
<path d="M-0.00012207 1.43266C-0.00012207 0.641875 0.661909 0 1.478 0H18.5218C19.3382 0 19.9999 0.641875 19.9999 1.43266V18.5676C19.9999 19.3586 19.3382 20 18.5218 20H1.478C0.661987 20 -0.00012207 19.3587 -0.00012207 18.5678V1.43242V1.43266Z" fill="#272D37"/>
<path d="M6.07767 16.7374V7.73329H3.08485V16.7374H6.07798H6.07767ZM4.58188 6.50415C5.62532 6.50415 6.27493 5.81274 6.27493 4.94868C6.2554 4.06493 5.62532 3.39282 4.60173 3.39282C3.57743 3.39282 2.90845 4.06493 2.90845 4.9486C2.90845 5.81267 3.55782 6.50407 4.56228 6.50407H4.58165L4.58188 6.50415ZM7.73423 16.7374H10.7268V11.7096C10.7268 11.4409 10.7463 11.1714 10.8254 10.9795C11.0416 10.4416 11.5341 9.88478 12.361 9.88478C13.4437 9.88478 13.877 10.7104 13.877 11.9209V16.7374H16.8695V11.5747C16.8695 8.80915 15.3933 7.5222 13.4243 7.5222C11.81 7.5222 11.101 8.42446 10.7071 9.03899H10.727V7.7336H7.73438C7.77345 8.57829 7.73415 16.7377 7.73415 16.7377L7.73423 16.7374Z" fill="white"/>
</svg>
